<svg width="360" height="159" viewBox="0 0 360 139" fill="none" xmlns="http://www.w3.org/2000/svg">
    <rect width="359.565" height="138.551" fill="black" />
    <path
        d="M58.3443 64.6345C63.816 70.1062 72.6856 70.1062 78.1573 64.6345L78.6812 64.1106C81.4147 61.3772 75.9454 47.0334 78.6812 44.2975L58.3443 64.6345Z"
        fill="url(#paint0_linear_10_351)" />
    <path
        d="M79.21 43.7688L78.6861 44.2927C75.9527 47.0261 81.4219 61.3699 78.6861 64.1034L99.0231 43.7664C96.2872 41.0305 92.7025 39.6626 89.1177 39.6626C85.5306 39.665 81.9434 41.033 79.21 43.7688Z"
        fill="url(#paint1_linear_10_351)" />
    <path
        d="M58.3443 44.8214C52.8726 50.2931 52.8726 59.1628 58.3443 64.6321L79.2124 43.7639C84.6841 38.2922 84.6841 29.4226 79.2124 23.9509L58.3443 44.8214Z"
        fill="url(#paint2_linear_10_351)" />
    <path
        d="M78.1573 64.6345C72.6856 70.1062 72.6856 78.9759 78.1573 84.4476L99.0255 63.5795C104.497 58.1102 104.497 49.2381 99.0255 43.7688L78.1573 64.6345Z"
        fill="url(#paint3_linear_10_351)" />
    <path
        d="M180.204 54.3096C179.782 52.8641 179.153 51.4889 178.334 50.218C176.932 48.0448 174.979 46.2306 172.69 44.9767C169.071 43.0048 164.756 42.5392 160.781 43.6961C156.769 44.8651 153.454 47.5355 151.448 51.21C149.452 54.8675 148.994 59.0828 150.153 63.0823L150.165 63.1235C150.432 64.0161 150.861 65.1536 150.868 65.173C152.2 68.2896 154.429 70.6689 157.681 72.4468C159.981 73.7055 162.566 74.3701 165.159 74.3701C166.648 74.3701 168.137 74.1542 169.585 73.7274C172.644 72.8348 175.312 71.0691 177.327 68.5904L177.453 68.4327C177.967 67.7827 178.433 67.0891 178.836 66.3663C179.554 65.0833 179.093 63.4558 177.81 62.7379C177.412 62.5148 176.963 62.3983 176.51 62.3983C175.544 62.3983 174.652 62.9198 174.181 63.7638C173.524 64.9402 172.651 65.9637 171.591 66.8029C171.499 66.8756 171.414 66.9532 171.365 67.009C170.388 67.7342 169.287 68.2824 168.091 68.634C165.477 69.4029 162.627 69.0949 160.226 67.7851C158.639 66.9217 157.315 65.6411 156.374 64.067L178.404 57.6033C179.806 57.1886 180.613 55.7139 180.204 54.3096ZM165.202 48.3625C166.905 48.3625 168.613 48.8015 170.141 49.6335C171.647 50.4557 172.937 51.6514 173.871 53.0921C173.924 53.1745 173.975 53.257 174.029 53.3419L154.848 58.9688C154.8 57.157 155.234 55.3598 156.117 53.7494C157.439 51.3264 159.624 49.5655 162.273 48.787C163.238 48.5081 164.223 48.3625 165.202 48.3625Z"
        fill="white" />
    <path
        d="M208.479 69.3059H193.905L210.203 45.3648C210.511 44.9112 210.543 44.3315 210.288 43.8465C210.034 43.3614 209.534 43.0631 208.986 43.0631H188.266C186.89 43.0631 185.77 44.1836 185.77 45.5588C185.77 46.934 186.89 48.0545 188.266 48.0545H202.153L185.86 71.9957C185.552 72.4492 185.52 73.0313 185.775 73.514C186.029 73.9966 186.529 74.2974 187.077 74.2974H208.479C209.854 74.2974 210.972 73.1793 210.972 71.8016C210.972 70.4264 209.854 69.3059 208.479 69.3059Z"
        fill="white" />
    <path
        d="M240.766 69.3059H226.194L242.49 45.3648C242.798 44.9136 242.832 44.3315 242.575 43.844C242.32 43.3614 241.818 43.0606 241.273 43.0606H220.55C219.175 43.0606 218.054 44.1812 218.054 45.5564C218.054 46.9316 219.172 48.0521 220.55 48.0521H234.438L218.144 71.9932C217.839 72.4468 217.805 73.0289 218.059 73.5115C218.316 73.9942 218.814 74.2949 219.362 74.2949H240.763C242.139 74.2949 243.259 73.1768 243.259 71.7992C243.262 70.4264 242.141 69.3059 240.766 69.3059Z"
        fill="white" />
    <path
        d="M255.156 29.5536C253.781 29.5536 252.66 30.6741 252.66 32.0493V71.8913C252.66 73.2665 253.778 74.3871 255.156 74.3871C256.531 74.3871 257.649 73.2665 257.649 71.8913V32.0493C257.649 30.6717 256.531 29.5536 255.156 29.5536Z"
        fill="white" />
    <path
        d="M296.082 54.3096C295.662 52.8665 295.034 51.4913 294.214 50.218C292.812 48.0448 290.86 46.2306 288.57 44.9767C284.952 43.0048 280.637 42.5392 276.662 43.6961C272.65 44.8651 269.335 47.5355 267.331 51.21C265.335 54.8675 264.874 59.0804 266.034 63.0823L266.046 63.1235C266.313 64.0112 266.742 65.1512 266.749 65.173C268.081 68.2896 270.31 70.6665 273.562 72.4468C275.859 73.7055 278.447 74.3701 281.04 74.3701C282.529 74.3701 284.018 74.1542 285.466 73.7274C288.524 72.8348 291.192 71.0667 293.205 68.5928L293.336 68.4279C293.851 67.7754 294.314 67.0842 294.716 66.3663C295.434 65.0833 294.974 63.4558 293.69 62.7379C293.293 62.5148 292.844 62.3983 292.39 62.3983C291.425 62.3983 290.533 62.9198 290.062 63.7638C289.402 64.9426 288.532 65.9637 287.472 66.8004C287.377 66.8732 287.292 66.9532 287.246 67.0066C286.269 67.7318 285.168 68.2799 283.969 68.6316C281.357 69.398 278.507 69.0924 276.104 67.7827C274.518 66.9169 273.193 65.6362 272.252 64.0646L294.282 57.6009C295.687 57.1886 296.492 55.7139 296.082 54.3096ZM281.083 48.3625C282.786 48.3625 284.493 48.8015 286.021 49.6335C287.528 50.4557 288.818 51.6514 289.752 53.0921C289.805 53.1745 289.856 53.257 289.907 53.3419L270.727 58.9688C270.678 57.157 271.115 55.3598 271.995 53.7494C273.317 51.3264 275.502 49.5655 278.153 48.787C279.116 48.5081 280.103 48.3625 281.083 48.3625Z"
        fill="white" />
    <path
        d="M141.793 60.4216C141.053 59.3375 139.983 58.4352 138.618 57.7391C136.384 56.6016 133.488 56.0826 130.713 55.646L130.272 55.5781C128.322 55.2749 126.306 54.9596 125.014 54.3048C124.034 53.81 123.685 53.2497 123.685 52.1631C123.685 50.0555 125.979 48.4668 129.02 48.4668C132.651 48.4668 134.676 49.5267 136.949 50.9141C137.371 51.1712 137.856 51.307 138.346 51.307C139.292 51.307 140.151 50.8267 140.643 50.0215C141.016 49.4103 141.13 48.6875 140.961 47.989C140.791 47.2905 140.362 46.7011 139.748 46.3276C138.489 45.5588 137.114 44.756 135.377 44.1351C133.422 43.4341 131.344 43.0946 129.02 43.0946C126.219 43.0946 123.6 43.9459 121.642 45.4909C119.493 47.1886 118.31 49.5583 118.31 52.1656C118.31 55.2895 119.789 57.6882 122.586 59.1046C124.643 60.1451 127.085 60.5235 129.445 60.8897L129.879 60.9576C135.935 61.9084 137.689 62.7597 137.689 64.7655C137.689 67.2491 135.203 68.8741 131.356 68.9057H131.218C127.09 68.9057 124.774 67.3195 123.532 66.4681C123.326 66.3275 123.149 66.2062 122.974 66.0971C122.547 65.8303 122.055 65.6896 121.553 65.6896C120.619 65.6896 119.765 66.1625 119.27 66.9532C118.487 68.212 118.87 69.8734 120.129 70.6568C120.197 70.7005 120.304 70.7732 120.422 70.8533L120.495 70.9018C121.97 71.9132 125.426 74.2804 131.22 74.2804H131.405C134.744 74.2513 137.614 73.3514 139.704 71.6803C141.873 69.9437 143.066 67.4892 143.066 64.7655C143.066 63.1162 142.639 61.6562 141.793 60.4216Z"
        fill="white" />
    <g filter="url(#filter0_d_10_351)">
        <path
            d="M40.9521 109.296C40.6756 109.296 40.4573 109.216 40.2972 109.056C40.1372 108.881 40.0571 108.648 40.0571 108.357V95.3037H35.1457C34.8837 95.3037 34.68 95.2309 34.5345 95.0854C34.389 94.9399 34.3162 94.7507 34.3162 94.5178C34.3162 94.2705 34.389 94.0813 34.5345 93.9503C34.68 93.8193 34.8837 93.7538 35.1457 93.7538H46.7803C47.0423 93.7538 47.246 93.8193 47.3915 93.9503C47.537 94.0813 47.6098 94.2705 47.6098 94.5178C47.6098 94.7652 47.537 94.9617 47.3915 95.1072C47.246 95.2382 47.0423 95.3037 46.7803 95.3037H41.8689V108.357C41.8689 108.648 41.7888 108.881 41.6288 109.056C41.4832 109.216 41.2577 109.296 40.9521 109.296Z"
            fill="white" />
        <path
            d="M50.5993 109.296C50.3083 109.296 50.09 109.216 49.9444 109.056C49.7989 108.896 49.7262 108.67 49.7262 108.379V94.496C49.7262 94.205 49.7989 93.9867 49.9444 93.8412C50.09 93.6811 50.3083 93.601 50.5993 93.601C50.8758 93.601 51.0941 93.6811 51.2542 93.8412C51.4142 93.9867 51.4943 94.205 51.4943 94.496V100.892H51.2105C51.5161 100.048 52.0109 99.4147 52.6948 98.9927C53.3934 98.5561 54.1937 98.3378 55.096 98.3378C55.94 98.3378 56.6385 98.4906 57.1915 98.7962C57.7591 99.1018 58.1811 99.5675 58.4576 100.193C58.7341 100.804 58.8723 101.583 58.8723 102.529V108.379C58.8723 108.67 58.7923 108.896 58.6322 109.056C58.4867 109.216 58.2757 109.296 57.9992 109.296C57.7081 109.296 57.4826 109.216 57.3225 109.056C57.177 108.896 57.1042 108.67 57.1042 108.379V102.638C57.1042 101.649 56.9078 100.928 56.5149 100.477C56.1365 100.011 55.5253 99.7785 54.6812 99.7785C53.7062 99.7785 52.9277 100.084 52.3456 100.695C51.778 101.292 51.4943 102.092 51.4943 103.096V108.379C51.4943 108.99 51.1959 109.296 50.5993 109.296Z"
            fill="white" />
        <path
            d="M66.9131 109.339C65.7926 109.339 64.8248 109.121 64.0099 108.685C63.2095 108.233 62.5838 107.6 62.1326 106.786C61.6961 105.971 61.4778 104.996 61.4778 103.86C61.4778 102.755 61.6961 101.794 62.1326 100.979C62.5692 100.15 63.1659 99.502 63.9226 99.0364C64.6939 98.5707 65.5816 98.3378 66.5857 98.3378C67.2987 98.3378 67.939 98.4615 68.5066 98.7089C69.0741 98.9418 69.5544 99.2838 69.9473 99.7349C70.3547 100.186 70.6603 100.732 70.8641 101.372C71.0824 102.012 71.1915 102.733 71.1915 103.533C71.1915 103.766 71.126 103.941 70.9951 104.057C70.8641 104.159 70.6749 104.21 70.4275 104.21H62.8312V103.053H70.0128L69.6635 103.337C69.6635 102.551 69.5471 101.889 69.3143 101.35C69.0814 100.797 68.7394 100.375 68.2883 100.084C67.8517 99.7931 67.2987 99.6476 66.6293 99.6476C65.8872 99.6476 65.2541 99.8222 64.7302 100.171C64.2209 100.506 63.8353 100.979 63.5733 101.59C63.3114 102.187 63.1804 102.885 63.1804 103.686V103.817C63.1804 105.156 63.5006 106.174 64.1409 106.873C64.7957 107.571 65.7198 107.921 66.9131 107.921C67.4079 107.921 67.8954 107.855 68.3756 107.724C68.8704 107.593 69.3506 107.375 69.8163 107.069C70.02 106.938 70.2019 106.88 70.362 106.895C70.5367 106.895 70.6749 106.946 70.7768 107.047C70.8786 107.135 70.9441 107.251 70.9732 107.397C71.0169 107.528 71.0023 107.673 70.9296 107.833C70.8714 107.993 70.7477 108.132 70.5585 108.248C70.0783 108.597 69.5107 108.867 68.8559 109.056C68.201 109.245 67.5534 109.339 66.9131 109.339Z"
            fill="white" />
        <path
            d="M80.5132 109.296C80.2221 109.296 79.9966 109.216 79.8365 109.056C79.691 108.881 79.6182 108.648 79.6182 108.357V94.6706C79.6182 94.365 79.6982 94.1395 79.8583 93.994C80.0184 93.8339 80.244 93.7538 80.535 93.7538H85.7084C87.3528 93.7538 88.6189 94.1395 89.5066 94.9108C90.3942 95.682 90.8381 96.7807 90.8381 98.2069C90.8381 99.1091 90.6344 99.895 90.2269 100.564C89.834 101.219 89.2519 101.721 88.4806 102.071C87.7093 102.405 86.7853 102.573 85.7084 102.573L85.9267 102.289H86.3632C86.9308 102.289 87.4256 102.434 87.8476 102.725C88.2696 103.016 88.6552 103.482 89.0045 104.122L91.1 108.03C91.2165 108.233 91.2674 108.437 91.2528 108.641C91.2528 108.83 91.1874 108.99 91.0564 109.121C90.9254 109.238 90.7362 109.296 90.4888 109.296C90.2414 109.296 90.0377 109.238 89.8776 109.121C89.7176 109.005 89.5793 108.837 89.4629 108.619L87.0836 104.21C86.7489 103.584 86.3632 103.169 85.9267 102.966C85.4901 102.747 84.9153 102.638 84.2022 102.638H81.4081V108.357C81.4081 108.648 81.3354 108.881 81.1899 109.056C81.0443 109.216 80.8188 109.296 80.5132 109.296ZM81.4081 101.219H85.4464C86.6397 101.219 87.542 100.972 88.1532 100.477C88.7644 99.9677 89.07 99.211 89.07 98.2069C89.07 97.2319 88.7644 96.497 88.1532 96.0022C87.542 95.4929 86.6397 95.2382 85.4464 95.2382H81.4081V101.219Z"
            fill="white" />
        <path
            d="M98.5262 109.339C97.4057 109.339 96.4379 109.121 95.623 108.685C94.8226 108.233 94.1969 107.6 93.7457 106.786C93.3092 105.971 93.0909 104.996 93.0909 103.86C93.0909 102.755 93.3092 101.794 93.7457 100.979C94.1823 100.15 94.779 99.502 95.5357 99.0364C96.307 98.5707 97.1947 98.3378 98.1988 98.3378C98.9118 98.3378 99.5521 98.4615 100.12 98.7089C100.687 98.9418 101.167 99.2838 101.56 99.7349C101.968 100.186 102.273 100.732 102.477 101.372C102.695 102.012 102.805 102.733 102.805 103.533C102.805 103.766 102.739 103.941 102.608 104.057C102.477 104.159 102.288 104.21 102.041 104.21H94.4442V103.053H101.626L101.277 103.337C101.277 102.551 101.16 101.889 100.927 101.35C100.695 100.797 100.353 100.375 99.9014 100.084C99.4648 99.7931 98.9118 99.6476 98.2424 99.6476C97.5003 99.6476 96.8672 99.8222 96.3433 100.171C95.834 100.506 95.4484 100.979 95.1864 101.59C94.9245 102.187 94.7935 102.885 94.7935 103.686V103.817C94.7935 105.156 95.1137 106.174 95.754 106.873C96.4088 107.571 97.3329 107.921 98.5262 107.921C99.021 107.921 99.5085 107.855 99.9887 107.724C100.483 107.593 100.964 107.375 101.429 107.069C101.633 106.938 101.815 106.88 101.975 106.895C102.15 106.895 102.288 106.946 102.39 107.047C102.492 107.135 102.557 107.251 102.586 107.397C102.63 107.528 102.615 107.673 102.543 107.833C102.484 107.993 102.361 108.132 102.172 108.248C101.691 108.597 101.124 108.867 100.469 109.056C99.8141 109.245 99.1665 109.339 98.5262 109.339Z"
            fill="white" />
        <path
            d="M108.943 109.339C108.289 109.339 107.626 109.259 106.957 109.099C106.302 108.939 105.691 108.663 105.123 108.27C104.978 108.168 104.876 108.052 104.818 107.921C104.76 107.775 104.738 107.637 104.752 107.506C104.781 107.36 104.84 107.237 104.927 107.135C105.029 107.033 105.145 106.975 105.276 106.96C105.422 106.931 105.582 106.96 105.756 107.047C106.324 107.397 106.87 107.644 107.394 107.79C107.932 107.921 108.463 107.986 108.987 107.986C109.817 107.986 110.442 107.833 110.864 107.528C111.286 107.222 111.497 106.807 111.497 106.283C111.497 105.876 111.359 105.556 111.083 105.323C110.806 105.076 110.37 104.886 109.773 104.755L107.786 104.319C106.87 104.13 106.186 103.802 105.735 103.337C105.298 102.871 105.08 102.267 105.08 101.525C105.08 100.87 105.247 100.31 105.582 99.844C105.931 99.3638 106.419 98.9927 107.044 98.7308C107.67 98.4688 108.398 98.3378 109.227 98.3378C109.867 98.3378 110.471 98.4252 111.039 98.5998C111.621 98.7599 112.145 99.0218 112.611 99.3856C112.756 99.4875 112.851 99.6112 112.894 99.7567C112.953 99.8877 112.96 100.026 112.916 100.171C112.887 100.302 112.822 100.419 112.72 100.521C112.618 100.608 112.494 100.659 112.349 100.674C112.203 100.688 112.05 100.644 111.89 100.543C111.454 100.251 111.01 100.04 110.559 99.9095C110.108 99.764 109.664 99.6912 109.227 99.6912C108.412 99.6912 107.794 99.8513 107.372 100.171C106.95 100.492 106.739 100.914 106.739 101.438C106.739 101.845 106.87 102.18 107.132 102.442C107.394 102.704 107.801 102.893 108.354 103.009L110.34 103.424C111.286 103.628 111.992 103.955 112.458 104.406C112.938 104.843 113.178 105.439 113.178 106.196C113.178 107.157 112.792 107.921 112.021 108.488C111.25 109.056 110.224 109.339 108.943 109.339Z"
            fill="white" />
        <path
            d="M116.746 113.225C116.455 113.225 116.237 113.145 116.091 112.985C115.946 112.839 115.873 112.621 115.873 112.33V99.2765C115.873 98.9854 115.946 98.7671 116.091 98.6216C116.237 98.4615 116.448 98.3815 116.724 98.3815C117.015 98.3815 117.233 98.4615 117.379 98.6216C117.539 98.7671 117.619 98.9854 117.619 99.2765V101.35L117.379 101.045C117.612 100.215 118.07 99.5602 118.754 99.08C119.453 98.5852 120.282 98.3378 121.243 98.3378C122.189 98.3378 123.011 98.5634 123.709 99.0145C124.422 99.4511 124.968 100.084 125.346 100.914C125.739 101.729 125.936 102.704 125.936 103.839C125.936 104.959 125.739 105.934 125.346 106.764C124.968 107.579 124.43 108.212 123.731 108.663C123.033 109.114 122.203 109.339 121.243 109.339C120.282 109.339 119.46 109.099 118.776 108.619C118.092 108.124 117.626 107.469 117.379 106.655H117.641V112.33C117.641 112.621 117.561 112.839 117.401 112.985C117.241 113.145 117.022 113.225 116.746 113.225ZM120.872 107.921C121.541 107.921 122.116 107.761 122.596 107.44C123.091 107.12 123.469 106.655 123.731 106.043C124.008 105.432 124.146 104.697 124.146 103.839C124.146 102.514 123.847 101.503 123.251 100.804C122.669 100.106 121.876 99.7567 120.872 99.7567C120.217 99.7567 119.642 99.9168 119.147 100.237C118.652 100.543 118.267 101.001 117.99 101.612C117.728 102.209 117.597 102.951 117.597 103.839C117.597 105.148 117.896 106.16 118.492 106.873C119.089 107.571 119.882 107.921 120.872 107.921Z"
            fill="white" />
        <path
            d="M133.008 109.339C131.975 109.339 131.08 109.114 130.323 108.663C129.567 108.212 128.977 107.579 128.555 106.764C128.148 105.934 127.944 104.959 127.944 103.839C127.944 102.995 128.061 102.238 128.293 101.568C128.526 100.885 128.868 100.302 129.319 99.8222C129.77 99.342 130.302 98.9782 130.913 98.7308C131.539 98.4688 132.237 98.3378 133.008 98.3378C134.042 98.3378 134.937 98.5634 135.693 99.0145C136.45 99.4657 137.032 100.106 137.44 100.935C137.862 101.75 138.073 102.718 138.073 103.839C138.073 104.683 137.956 105.439 137.723 106.109C137.491 106.778 137.149 107.36 136.697 107.855C136.246 108.335 135.708 108.706 135.082 108.968C134.471 109.216 133.78 109.339 133.008 109.339ZM133.008 107.921C133.663 107.921 134.238 107.761 134.733 107.44C135.228 107.12 135.606 106.655 135.868 106.043C136.144 105.432 136.283 104.697 136.283 103.839C136.283 102.514 135.984 101.503 135.388 100.804C134.806 100.106 134.012 99.7567 133.008 99.7567C132.339 99.7567 131.757 99.9168 131.262 100.237C130.782 100.543 130.404 101.001 130.127 101.612C129.865 102.209 129.734 102.951 129.734 103.839C129.734 105.148 130.032 106.16 130.629 106.873C131.226 107.571 132.019 107.921 133.008 107.921Z"
            fill="white" />
        <path
            d="M141.602 109.296C141.31 109.296 141.092 109.216 140.947 109.056C140.801 108.896 140.728 108.67 140.728 108.379V99.2765C140.728 98.9854 140.801 98.7671 140.947 98.6216C141.092 98.4615 141.303 98.3815 141.58 98.3815C141.856 98.3815 142.067 98.4615 142.213 98.6216C142.373 98.7671 142.453 98.9854 142.453 99.2765V101.154L142.213 100.892C142.518 100.048 143.013 99.4147 143.697 98.9927C144.396 98.5561 145.196 98.3378 146.098 98.3378C146.942 98.3378 147.641 98.4906 148.194 98.7962C148.761 99.1018 149.183 99.5675 149.46 100.193C149.736 100.804 149.875 101.583 149.875 102.529V108.379C149.875 108.67 149.795 108.896 149.634 109.056C149.489 109.216 149.278 109.296 149.001 109.296C148.71 109.296 148.485 109.216 148.325 109.056C148.179 108.896 148.106 108.67 148.106 108.379V102.638C148.106 101.649 147.91 100.928 147.517 100.477C147.139 100.011 146.528 99.7785 145.683 99.7785C144.708 99.7785 143.93 100.084 143.348 100.695C142.78 101.292 142.496 102.092 142.496 103.096V108.379C142.496 108.99 142.198 109.296 141.602 109.296Z"
            fill="white" />
        <path
            d="M156.715 109.339C156.06 109.339 155.398 109.259 154.728 109.099C154.073 108.939 153.462 108.663 152.895 108.27C152.749 108.168 152.647 108.052 152.589 107.921C152.531 107.775 152.509 107.637 152.524 107.506C152.553 107.36 152.611 107.237 152.698 107.135C152.8 107.033 152.917 106.975 153.048 106.96C153.193 106.931 153.353 106.96 153.528 107.047C154.095 107.397 154.641 107.644 155.165 107.79C155.703 107.921 156.235 107.986 156.758 107.986C157.588 107.986 158.214 107.833 158.636 107.528C159.058 107.222 159.269 106.807 159.269 106.283C159.269 105.876 159.13 105.556 158.854 105.323C158.577 105.076 158.141 104.886 157.544 104.755L155.558 104.319C154.641 104.13 153.957 103.802 153.506 103.337C153.069 102.871 152.851 102.267 152.851 101.525C152.851 100.87 153.018 100.31 153.353 99.844C153.702 99.3638 154.19 98.9927 154.816 98.7308C155.441 98.4688 156.169 98.3378 156.999 98.3378C157.639 98.3378 158.243 98.4252 158.81 98.5998C159.392 98.7599 159.916 99.0218 160.382 99.3856C160.527 99.4875 160.622 99.6112 160.666 99.7567C160.724 99.8877 160.731 100.026 160.688 100.171C160.658 100.302 160.593 100.419 160.491 100.521C160.389 100.608 160.266 100.659 160.12 100.674C159.974 100.688 159.822 100.644 159.662 100.543C159.225 100.251 158.781 100.04 158.33 99.9095C157.879 99.764 157.435 99.6912 156.999 99.6912C156.184 99.6912 155.565 99.8513 155.143 100.171C154.721 100.492 154.51 100.914 154.51 101.438C154.51 101.845 154.641 102.18 154.903 102.442C155.165 102.704 155.572 102.893 156.125 103.009L158.112 103.424C159.058 103.628 159.763 103.955 160.229 104.406C160.709 104.843 160.949 105.439 160.949 106.196C160.949 107.157 160.564 107.921 159.793 108.488C159.021 109.056 157.995 109.339 156.715 109.339Z"
            fill="white" />
        <path
            d="M164.517 109.252C164.226 109.252 164.008 109.172 163.862 109.012C163.717 108.837 163.644 108.597 163.644 108.292V99.3638C163.644 99.0582 163.717 98.8254 163.862 98.6653C164.008 98.5052 164.226 98.4252 164.517 98.4252C164.794 98.4252 165.012 98.5052 165.172 98.6653C165.332 98.8254 165.412 99.0582 165.412 99.3638V108.292C165.412 108.597 165.332 108.837 165.172 109.012C165.027 109.172 164.808 109.252 164.517 109.252ZM164.517 95.9804C164.153 95.9804 163.87 95.8858 163.666 95.6966C163.462 95.4929 163.36 95.2236 163.36 94.8889C163.36 94.5397 163.462 94.2777 163.666 94.1031C163.87 93.9139 164.153 93.8193 164.517 93.8193C164.896 93.8193 165.179 93.9139 165.369 94.1031C165.572 94.2777 165.674 94.5397 165.674 94.8889C165.674 95.2236 165.572 95.4929 165.369 95.6966C165.179 95.8858 164.896 95.9804 164.517 95.9804Z"
            fill="white" />
        <path
            d="M174.087 109.339C173.127 109.339 172.297 109.092 171.599 108.597C170.915 108.103 170.457 107.44 170.224 106.611L170.464 106.371V108.379C170.464 108.67 170.384 108.896 170.224 109.056C170.078 109.216 169.867 109.296 169.591 109.296C169.3 109.296 169.081 109.216 168.936 109.056C168.79 108.896 168.718 108.67 168.718 108.379V94.496C168.718 94.205 168.79 93.9867 168.936 93.8412C169.081 93.6811 169.3 93.601 169.591 93.601C169.867 93.601 170.085 93.6811 170.246 93.8412C170.406 93.9867 170.486 94.205 170.486 94.496V101.001H170.224C170.471 100.186 170.937 99.5384 171.621 99.0582C172.305 98.578 173.127 98.3378 174.087 98.3378C175.048 98.3378 175.877 98.5634 176.576 99.0145C177.274 99.4511 177.813 100.084 178.191 100.914C178.584 101.729 178.781 102.704 178.781 103.839C178.781 104.959 178.584 105.934 178.191 106.764C177.813 107.579 177.267 108.212 176.554 108.663C175.856 109.114 175.033 109.339 174.087 109.339ZM173.716 107.921C174.386 107.921 174.961 107.761 175.441 107.44C175.936 107.12 176.314 106.655 176.576 106.043C176.852 105.432 176.991 104.697 176.991 103.839C176.991 102.514 176.692 101.503 176.096 100.804C175.514 100.106 174.72 99.7567 173.716 99.7567C173.061 99.7567 172.487 99.9168 171.992 100.237C171.497 100.543 171.111 101.001 170.835 101.612C170.573 102.209 170.442 102.951 170.442 103.839C170.442 105.148 170.74 106.16 171.337 106.873C171.934 107.571 172.727 107.921 173.716 107.921Z"
            fill="white" />
        <path
            d="M184.674 109.339C183.627 109.339 182.826 109.019 182.273 108.379C181.72 107.739 181.444 106.822 181.444 105.629V94.496C181.444 94.205 181.517 93.9867 181.662 93.8412C181.808 93.6811 182.026 93.601 182.317 93.601C182.593 93.601 182.812 93.6811 182.972 93.8412C183.132 93.9867 183.212 94.205 183.212 94.496V105.498C183.212 106.283 183.365 106.873 183.67 107.266C183.99 107.644 184.456 107.833 185.067 107.833C185.198 107.833 185.315 107.826 185.417 107.811C185.518 107.797 185.62 107.79 185.722 107.79C185.882 107.775 185.991 107.811 186.05 107.899C186.122 107.986 186.159 108.161 186.159 108.423C186.159 108.685 186.101 108.881 185.984 109.012C185.868 109.143 185.679 109.23 185.417 109.274C185.3 109.289 185.177 109.303 185.046 109.318C184.915 109.332 184.791 109.339 184.674 109.339Z"
            fill="white" />
        <path
            d="M192.577 109.339C191.456 109.339 190.488 109.121 189.674 108.685C188.873 108.233 188.247 107.6 187.796 106.786C187.36 105.971 187.141 104.996 187.141 103.86C187.141 102.755 187.36 101.794 187.796 100.979C188.233 100.15 188.829 99.502 189.586 99.0364C190.357 98.5707 191.245 98.3378 192.249 98.3378C192.962 98.3378 193.603 98.4615 194.17 98.7089C194.738 98.9418 195.218 99.2838 195.611 99.7349C196.018 100.186 196.324 100.732 196.528 101.372C196.746 102.012 196.855 102.733 196.855 103.533C196.855 103.766 196.79 103.941 196.659 104.057C196.528 104.159 196.339 104.21 196.091 104.21H188.495V103.053H195.676L195.327 103.337C195.327 102.551 195.211 101.889 194.978 101.35C194.745 100.797 194.403 100.375 193.952 100.084C193.515 99.7931 192.962 99.6476 192.293 99.6476C191.551 99.6476 190.918 99.8222 190.394 100.171C189.885 100.506 189.499 100.979 189.237 101.59C188.975 102.187 188.844 102.885 188.844 103.686V103.817C188.844 105.156 189.164 106.174 189.805 106.873C190.459 107.571 191.383 107.921 192.577 107.921C193.072 107.921 193.559 107.855 194.039 107.724C194.534 107.593 195.014 107.375 195.48 107.069C195.684 106.938 195.866 106.88 196.026 106.895C196.2 106.895 196.339 106.946 196.44 107.047C196.542 107.135 196.608 107.251 196.637 107.397C196.681 107.528 196.666 107.673 196.593 107.833C196.535 107.993 196.411 108.132 196.222 108.248C195.742 108.597 195.174 108.867 194.519 109.056C193.865 109.245 193.217 109.339 192.577 109.339Z"
            fill="white" />
        <path
            d="M210.215 109.296C209.953 109.296 209.742 109.23 209.582 109.099C209.422 108.954 209.291 108.743 209.189 108.466L204.365 94.6925C204.263 94.3869 204.285 94.1322 204.431 93.9285C204.591 93.7102 204.838 93.601 205.173 93.601C205.42 93.601 205.617 93.6665 205.762 93.7975C205.908 93.9139 206.031 94.1031 206.133 94.365L210.652 107.615H209.888L214.493 94.4305C214.595 94.154 214.719 93.9503 214.865 93.8193C215.01 93.6738 215.207 93.601 215.454 93.601C215.687 93.601 215.869 93.6738 216 93.8193C216.145 93.9503 216.269 94.154 216.371 94.4305L220.911 107.615H220.234L224.797 94.365C224.869 94.1177 224.978 93.9285 225.124 93.7975C225.284 93.6665 225.488 93.601 225.735 93.601C226.041 93.601 226.266 93.7029 226.412 93.9066C226.557 94.1104 226.572 94.3723 226.456 94.6925L221.61 108.466C221.508 108.743 221.377 108.954 221.217 109.099C221.071 109.23 220.86 109.296 220.584 109.296C220.322 109.296 220.111 109.23 219.951 109.099C219.805 108.954 219.674 108.743 219.558 108.466L215.17 95.8276H215.65L211.219 108.466C211.117 108.743 210.994 108.954 210.848 109.099C210.703 109.23 210.492 109.296 210.215 109.296Z"
            fill="white" />
        <path
            d="M231.169 109.339C230.442 109.339 229.787 109.201 229.205 108.925C228.637 108.634 228.186 108.241 227.851 107.746C227.517 107.251 227.349 106.698 227.349 106.087C227.349 105.301 227.546 104.683 227.939 104.232C228.346 103.78 229.008 103.46 229.925 103.271C230.856 103.082 232.123 102.987 233.723 102.987H234.706V104.144H233.745C232.566 104.144 231.635 104.202 230.951 104.319C230.282 104.421 229.809 104.603 229.532 104.865C229.27 105.127 229.139 105.498 229.139 105.978C229.139 106.575 229.343 107.062 229.75 107.44C230.173 107.819 230.74 108.008 231.453 108.008C232.035 108.008 232.545 107.87 232.981 107.593C233.432 107.317 233.781 106.938 234.029 106.458C234.291 105.978 234.422 105.425 234.422 104.799V102.311C234.422 101.408 234.24 100.761 233.876 100.368C233.512 99.9604 232.916 99.7567 232.086 99.7567C231.577 99.7567 231.067 99.8222 230.558 99.9532C230.049 100.084 229.51 100.295 228.943 100.586C228.739 100.688 228.564 100.724 228.419 100.695C228.273 100.652 228.157 100.572 228.07 100.455C227.982 100.339 227.931 100.208 227.917 100.062C227.902 99.9022 227.931 99.7494 228.004 99.6039C228.092 99.4584 228.222 99.342 228.397 99.2546C229.037 98.9345 229.67 98.7017 230.296 98.5561C230.922 98.4106 231.519 98.3378 232.086 98.3378C233.003 98.3378 233.76 98.4906 234.356 98.7962C234.953 99.0873 235.397 99.5384 235.688 100.15C235.979 100.746 236.124 101.518 236.124 102.463V108.379C236.124 108.67 236.052 108.896 235.906 109.056C235.775 109.216 235.579 109.296 235.317 109.296C235.04 109.296 234.829 109.216 234.684 109.056C234.538 108.896 234.465 108.67 234.465 108.379V106.676H234.662C234.546 107.229 234.32 107.702 233.985 108.095C233.665 108.488 233.265 108.794 232.785 109.012C232.304 109.23 231.766 109.339 231.169 109.339Z"
            fill="white" />
        <path
            d="M241.656 113.225C241.437 113.225 241.263 113.167 241.132 113.05C241.001 112.934 240.921 112.774 240.892 112.57C240.877 112.381 240.913 112.184 241.001 111.981L242.507 108.597V109.361L238.316 99.6257C238.229 99.4074 238.199 99.2037 238.229 99.0145C238.258 98.8254 238.345 98.6726 238.49 98.5561C238.636 98.4397 238.84 98.3815 239.102 98.3815C239.334 98.3815 239.516 98.4324 239.647 98.5343C239.778 98.6362 239.895 98.8181 239.997 99.08L243.577 107.855H242.987L246.611 99.08C246.727 98.8181 246.851 98.6362 246.982 98.5343C247.113 98.4324 247.302 98.3815 247.549 98.3815C247.782 98.3815 247.957 98.4397 248.073 98.5561C248.204 98.6726 248.277 98.8254 248.291 99.0145C248.321 99.1892 248.292 99.3856 248.204 99.6039L242.616 112.526C242.5 112.788 242.369 112.97 242.223 113.072C242.092 113.174 241.903 113.225 241.656 113.225Z"
            fill="white" />
        <path
            d="M260.395 109.339C259.566 109.339 258.867 109.194 258.3 108.903C257.747 108.597 257.332 108.161 257.055 107.593C256.779 107.011 256.641 106.305 256.641 105.476V99.9095H255.178C254.931 99.9095 254.742 99.8513 254.611 99.7349C254.48 99.6039 254.414 99.4293 254.414 99.211C254.414 98.9927 254.48 98.8254 254.611 98.7089C254.742 98.5925 254.931 98.5343 255.178 98.5343H256.641V96.024C256.641 95.733 256.721 95.5147 256.881 95.3692C257.041 95.2091 257.259 95.129 257.536 95.129C257.812 95.129 258.023 95.2091 258.169 95.3692C258.329 95.5147 258.409 95.733 258.409 96.024V98.5343H261.159C261.406 98.5343 261.596 98.5925 261.727 98.7089C261.858 98.8254 261.923 98.9927 261.923 99.211C261.923 99.4293 261.858 99.6039 261.727 99.7349C261.596 99.8513 261.406 99.9095 261.159 99.9095H258.409V105.301C258.409 106.131 258.583 106.764 258.933 107.2C259.282 107.622 259.849 107.833 260.635 107.833C260.912 107.833 261.145 107.804 261.334 107.746C261.537 107.688 261.705 107.659 261.836 107.659C261.967 107.644 262.076 107.688 262.163 107.79C262.251 107.891 262.294 108.066 262.294 108.314C262.294 108.488 262.258 108.648 262.185 108.794C262.127 108.939 262.018 109.041 261.858 109.099C261.683 109.158 261.45 109.208 261.159 109.252C260.883 109.31 260.628 109.339 260.395 109.339Z"
            fill="white" />
        <path
            d="M268.073 109.339C267.04 109.339 266.145 109.114 265.388 108.663C264.631 108.212 264.042 107.579 263.62 106.764C263.212 105.934 263.009 104.959 263.009 103.839C263.009 102.995 263.125 102.238 263.358 101.568C263.591 100.885 263.933 100.302 264.384 99.8222C264.835 99.342 265.366 98.9782 265.977 98.7308C266.603 98.4688 267.302 98.3378 268.073 98.3378C269.106 98.3378 270.001 98.5634 270.758 99.0145C271.514 99.4657 272.097 100.106 272.504 100.935C272.926 101.75 273.137 102.718 273.137 103.839C273.137 104.683 273.021 105.439 272.788 106.109C272.555 106.778 272.213 107.36 271.762 107.855C271.311 108.335 270.772 108.706 270.147 108.968C269.535 109.216 268.844 109.339 268.073 109.339ZM268.073 107.921C268.728 107.921 269.302 107.761 269.797 107.44C270.292 107.12 270.67 106.655 270.932 106.043C271.209 105.432 271.347 104.697 271.347 103.839C271.347 102.514 271.049 101.503 270.452 100.804C269.87 100.106 269.077 99.7567 268.073 99.7567C267.403 99.7567 266.821 99.9168 266.327 100.237C265.846 100.543 265.468 101.001 265.191 101.612C264.929 102.209 264.799 102.951 264.799 103.839C264.799 105.148 265.097 106.16 265.693 106.873C266.29 107.571 267.083 107.921 268.073 107.921Z"
            fill="white" />
        <path
            d="M282.556 109.296C282.265 109.296 282.039 109.216 281.879 109.056C281.733 108.881 281.661 108.648 281.661 108.357V94.6706C281.661 94.365 281.741 94.1395 281.901 93.994C282.061 93.8339 282.286 93.7538 282.577 93.7538H287.751C289.395 93.7538 290.661 94.1613 291.549 94.9762C292.437 95.7766 292.88 96.9117 292.88 98.3815C292.88 99.8367 292.437 100.972 291.549 101.787C290.661 102.602 289.395 103.009 287.751 103.009H283.451V108.357C283.451 108.648 283.378 108.881 283.232 109.056C283.087 109.216 282.861 109.296 282.556 109.296ZM283.451 101.503H287.532C288.711 101.503 289.599 101.241 290.196 100.717C290.807 100.179 291.112 99.4002 291.112 98.3815C291.112 97.3483 290.807 96.5697 290.196 96.0458C289.599 95.5074 288.711 95.2382 287.532 95.2382H283.451V101.503Z"
            fill="white" />
        <path
            d="M298.041 109.339C297.313 109.339 296.658 109.201 296.076 108.925C295.509 108.634 295.057 108.241 294.723 107.746C294.388 107.251 294.221 106.698 294.221 106.087C294.221 105.301 294.417 104.683 294.81 104.232C295.218 103.78 295.88 103.46 296.797 103.271C297.728 103.082 298.994 102.987 300.595 102.987H301.577V104.144H300.617C299.438 104.144 298.506 104.202 297.822 104.319C297.153 104.421 296.68 104.603 296.404 104.865C296.142 105.127 296.011 105.498 296.011 105.978C296.011 106.575 296.214 107.062 296.622 107.44C297.044 107.819 297.611 108.008 298.325 108.008C298.907 108.008 299.416 107.87 299.853 107.593C300.304 107.317 300.653 106.938 300.9 106.458C301.162 105.978 301.293 105.425 301.293 104.799V102.311C301.293 101.408 301.111 100.761 300.747 100.368C300.384 99.9604 299.787 99.7567 298.958 99.7567C298.448 99.7567 297.939 99.8222 297.43 99.9532C296.92 100.084 296.382 100.295 295.814 100.586C295.61 100.688 295.436 100.724 295.29 100.695C295.145 100.652 295.028 100.572 294.941 100.455C294.854 100.339 294.803 100.208 294.788 100.062C294.774 99.9022 294.803 99.7494 294.876 99.6039C294.963 99.4584 295.094 99.342 295.268 99.2546C295.909 98.9345 296.542 98.7017 297.168 98.5561C297.793 98.4106 298.39 98.3378 298.958 98.3378C299.874 98.3378 300.631 98.4906 301.228 98.7962C301.824 99.0873 302.268 99.5384 302.559 100.15C302.85 100.746 302.996 101.518 302.996 102.463V108.379C302.996 108.67 302.923 108.896 302.778 109.056C302.647 109.216 302.45 109.296 302.188 109.296C301.912 109.296 301.701 109.216 301.555 109.056C301.41 108.896 301.337 108.67 301.337 108.379V106.676H301.533C301.417 107.229 301.191 107.702 300.857 108.095C300.536 108.488 300.136 108.794 299.656 109.012C299.176 109.23 298.637 109.339 298.041 109.339Z"
            fill="white" />
        <path
            d="M308.527 113.225C308.309 113.225 308.134 113.167 308.003 113.05C307.872 112.934 307.792 112.774 307.763 112.57C307.748 112.381 307.785 112.184 307.872 111.981L309.378 108.597V109.361L305.187 99.6257C305.1 99.4074 305.071 99.2037 305.1 99.0145C305.129 98.8254 305.216 98.6726 305.362 98.5561C305.507 98.4397 305.711 98.3815 305.973 98.3815C306.206 98.3815 306.388 98.4324 306.519 98.5343C306.65 98.6362 306.766 98.8181 306.868 99.08L310.448 107.855H309.859L313.482 99.08C313.599 98.8181 313.722 98.6362 313.853 98.5343C313.984 98.4324 314.173 98.3815 314.421 98.3815C314.654 98.3815 314.828 98.4397 314.945 98.5561C315.076 98.6726 315.148 98.8254 315.163 99.0145C315.192 99.1892 315.163 99.3856 315.076 99.6039L309.487 112.526C309.371 112.788 309.24 112.97 309.095 113.072C308.964 113.174 308.774 113.225 308.527 113.225Z"
            fill="white" />
    </g>
    <defs>
        <filter id="filter0_d_10_351" x="30.3162" y="93.601" width="288.858" height="27.6239"
            filterUnits="userSpaceOnUse" color-interpolation-filters="sRGB">
            <feFlood flood-opacity="0" result="BackgroundImageFix" />
            <feColorMatrix in="SourceAlpha" type="matrix" values="0 0 0 0 0 0 0 0 0 0 0 0 0 0 0 0 0 0 127 0"
                result="hardAlpha" />
            <feOffset dy="4" />
            <feGaussianBlur stdDeviation="2" />
            <feComposite in2="hardAlpha" operator="out" />
            <feColorMatrix type="matrix" values="0 0 0 0 0 0 0 0 0 0 0 0 0 0 0 0 0 0 0.25 0" />
            <feBlend mode="normal" in2="BackgroundImageFix" result="effect1_dropShadow_10_351" />
            <feBlend mode="normal" in="SourceGraphic" in2="effect1_dropShadow_10_351" result="shape" />
        </filter>
        <linearGradient id="paint0_linear_10_351" x1="77.5388" y1="65.2228" x2="67.7071" y2="53.5057"
            gradientUnits="userSpaceOnUse">
            <stop stop-color="#CE5DCB" />
            <stop offset="0.2095" stop-color="#C558CC" />
            <stop offset="0.5525" stop-color="#AC4ACF" />
            <stop offset="0.9845" stop-color="#8534D4" />
            <stop offset="1" stop-color="#8333D4" />
        </linearGradient>
        <linearGradient id="paint1_linear_10_351" x1="77.8955" y1="51.8858" x2="99.0215" y2="51.8858"
            gradientUnits="userSpaceOnUse">
            <stop offset="0.0237" stop-color="#FF5667" />
            <stop offset="0.6592" stop-color="#FC8B82" />
            <stop offset="1" stop-color="#FBA28E" />
        </linearGradient>
        <linearGradient id="paint2_linear_10_351" x1="54.2405" y1="44.2935" x2="83.3161" y2="44.2935"
            gradientUnits="userSpaceOnUse">
            <stop stop-color="#00B874" />
            <stop offset="0.5126" stop-color="#29D3A2" />
            <stop offset="0.6817" stop-color="#53DFB6" />
            <stop offset="1" stop-color="#9FF4D9" />
        </linearGradient>
        <linearGradient id="paint3_linear_10_351" x1="74.0531" y1="64.106" x2="103.128" y2="64.106"
            gradientUnits="userSpaceOnUse">
            <stop stop-color="#FCD77E" />
            <stop offset="0.5241" stop-color="#FEA500" />
            <stop offset="1" stop-color="#FF5B00" />
        </linearGradient>
    </defs>
</svg>