<svg width="64" height="12" viewBox="0 0 64 12" fill="none" xmlns="http://www.w3.org/2000/svg">
  <g id="Group 2131">
    <path id="Star 10"
      d="M6.07394 1.26779C6.20997 0.860862 6.78555 0.860863 6.92159 1.26779L7.73223 3.69267C7.79317 3.87496 7.96385 3.99786 8.15605 3.99786H10.7517C11.1877 3.99786 11.3656 4.5583 11.0095 4.80979L8.93164 6.27704C8.77054 6.3908 8.70306 6.59672 8.76559 6.78376L9.56438 9.17318C9.70127 9.58267 9.23547 9.92896 8.88278 9.67991L6.75554 8.17775C6.60101 8.06863 6.39451 8.06863 6.23999 8.17775L4.11274 9.67991C3.76005 9.92896 3.29425 9.58267 3.43114 9.17318L4.22993 6.78376C4.29246 6.59672 4.22498 6.3908 4.06388 6.27704L1.98606 4.80978C1.62993 4.5583 1.80786 3.99786 2.24384 3.99786H4.83947C5.03168 3.99786 5.20235 3.87496 5.26329 3.69267L6.07394 1.26779Z"
      fill="#00B874" />
    <path id="Star 11"
      d="M18.9711 1.26779C19.1071 0.860862 19.6827 0.860863 19.8187 1.26779L20.6294 3.69267C20.6903 3.87496 20.861 3.99786 21.0532 3.99786H23.6488C24.0848 3.99786 24.2627 4.5583 23.9066 4.80979L21.8288 6.27704C21.6677 6.3908 21.6002 6.59672 21.6627 6.78376L22.4615 9.17318C22.5984 9.58267 22.1326 9.92896 21.7799 9.67991L19.6527 8.17775C19.4981 8.06863 19.2917 8.06863 19.1371 8.17775L17.0099 9.67991C16.6572 9.92896 16.1914 9.58267 16.3283 9.17318L17.1271 6.78376C17.1896 6.59672 17.1221 6.3908 16.961 6.27704L14.8832 4.80978C14.5271 4.5583 14.705 3.99786 15.141 3.99786H17.7366C17.9288 3.99786 18.0995 3.87496 18.1604 3.69267L18.9711 1.26779Z"
      fill="#00B874" />
    <path id="Star 12"
      d="M31.8682 1.26779C32.0043 0.860862 32.5798 0.860863 32.7159 1.26779L33.5265 3.69267C33.5875 3.87496 33.7581 3.99786 33.9503 3.99786H36.546C36.9819 3.99786 37.1599 4.5583 36.8037 4.80979L34.7259 6.27704C34.5648 6.3908 34.4973 6.59672 34.5599 6.78376L35.3587 9.17318C35.4956 9.58267 35.0298 9.92896 34.6771 9.67991L32.5498 8.17775C32.3953 8.06863 32.1888 8.06863 32.0343 8.17775L29.907 9.67991C29.5543 9.92896 29.0885 9.58267 29.2254 9.17318L30.0242 6.78376C30.0867 6.59672 30.0193 6.3908 29.8582 6.27704L27.7803 4.80978C27.4242 4.5583 27.6021 3.99786 28.0381 3.99786H30.6337C30.826 3.99786 30.9966 3.87496 31.0576 3.69267L31.8682 1.26779Z"
      fill="#00B874" />
    <path id="Star 13"
      d="M44.27 1.26779C44.406 0.860862 44.9816 0.860863 45.1177 1.26779L45.9283 3.69267C45.9892 3.87496 46.1599 3.99786 46.3521 3.99786H48.9478C49.3837 3.99786 49.5617 4.5583 49.2055 4.80979L47.1277 6.27704C46.9666 6.3908 46.8991 6.59672 46.9617 6.78376L47.7605 9.17318C47.8973 9.58267 47.4315 9.92896 47.0789 9.67991L44.9516 8.17775C44.7971 8.06863 44.5906 8.06863 44.4361 8.17775L42.3088 9.67991C41.9561 9.92896 41.4903 9.58267 41.6272 9.17318L42.426 6.78376C42.4885 6.59672 42.4211 6.3908 42.26 6.27704L40.1821 4.80978C39.826 4.5583 40.0039 3.99786 40.4399 3.99786H43.0355C43.2278 3.99786 43.3984 3.87496 43.4594 3.69267L44.27 1.26779Z"
      fill="#00B874" />
    <path id="Star 14"
      d="M57.1682 1.26779C57.3042 0.860862 57.8798 0.860863 58.0158 1.26779L58.8265 3.69267C58.8874 3.87496 59.0581 3.99786 59.2503 3.99786H61.8459C62.2819 3.99786 62.4598 4.5583 62.1037 4.80979L60.0259 6.27704C59.8648 6.3908 59.7973 6.59672 59.8598 6.78376L60.6586 9.17318C60.7955 9.58267 60.3297 9.92896 59.977 9.67991L57.8498 8.17775C57.6952 8.06863 57.4887 8.06863 57.3342 8.17775L55.207 9.67991C54.8543 9.92896 54.3885 9.58267 54.5254 9.17318L55.3242 6.78376C55.3867 6.59672 55.3192 6.3908 55.1581 6.27704L53.0803 4.80978C52.7241 4.5583 52.9021 3.99786 53.3381 3.99786H55.9337C56.1259 3.99786 56.2966 3.87496 56.3575 3.69267L57.1682 1.26779Z"
      fill="#00B874" />
  </g>
</svg>