<svg width="233" height="74" viewBox="0 0 233 74" fill="none" xmlns="http://www.w3.org/2000/svg">
  <path
    d="M19.8716 33.6461C24.3968 38.1713 31.7322 38.1713 36.2574 33.6461L36.6907 33.2129C38.9513 30.9523 34.4281 19.0897 36.6907 16.8271L19.8716 33.6461Z"
    fill="url(#paint0_linear_101_615)" />
  <path
    d="M37.128 16.3898L36.6947 16.823C34.4341 19.0836 38.9573 30.9462 36.6947 33.2068L53.5138 16.3878C51.2512 14.1252 48.2865 12.9939 45.3219 12.9939C42.3552 12.9959 39.3886 14.1272 37.128 16.3898Z"
    fill="url(#paint1_linear_101_615)" />
  <path
    d="M19.8716 17.2603C15.3464 21.7855 15.3464 29.1209 19.8716 33.6441L37.13 16.3858C41.6552 11.8606 41.6552 4.5252 37.13 0L19.8716 17.2603Z"
    fill="url(#paint2_linear_101_615)" />
  <path
    d="M36.2574 33.6461C31.7322 38.1713 31.7322 45.5067 36.2574 50.0319L53.5158 32.7736C58.041 28.2504 58.041 20.913 53.5158 16.3898L36.2574 33.6461Z"
    fill="url(#paint3_linear_101_615)" />
  <path
    d="M120.652 25.1073C120.303 23.9118 119.783 22.7745 119.105 21.7234C117.946 19.9262 116.331 18.4258 114.437 17.3888C111.445 15.758 107.876 15.3729 104.589 16.3297C101.271 17.2965 98.5291 19.5049 96.8702 22.5438C95.2194 25.5686 94.8403 29.0548 95.7991 32.3624L95.8091 32.3965C96.0298 33.1347 96.3848 34.0754 96.3908 34.0915C97.4921 36.669 99.3354 38.6367 102.025 40.107C103.927 41.1481 106.065 41.6977 108.209 41.6977C109.441 41.6977 110.673 41.5191 111.87 41.1661C114.399 40.428 116.606 38.9677 118.273 36.9177L118.377 36.7873C118.802 36.2498 119.187 35.6761 119.52 35.0784C120.114 34.0173 119.733 32.6713 118.672 32.0776C118.343 31.8931 117.972 31.7968 117.597 31.7968C116.798 31.7968 116.06 32.228 115.671 32.9261C115.127 33.8989 114.405 34.7454 113.529 35.4394C113.453 35.4996 113.382 35.5638 113.342 35.6099C112.534 36.2097 111.623 36.663 110.634 36.9538C108.472 37.5897 106.115 37.3349 104.129 36.2518C102.818 35.5377 101.722 34.4786 100.944 33.1768L119.163 27.8312C120.323 27.4882 120.991 26.2687 120.652 25.1073ZM108.245 20.1889C109.654 20.1889 111.066 20.552 112.329 21.24C113.575 21.92 114.642 22.9089 115.414 24.1003C115.458 24.1685 115.501 24.2367 115.545 24.3069L99.6824 28.9605C99.6423 27.4621 100.001 25.9758 100.732 24.6439C101.825 22.6401 103.632 21.1838 105.822 20.5399C106.621 20.3093 107.435 20.1889 108.245 20.1889Z"
    fill="#382757" />
  <path
    d="M144.036 37.5094H131.983L145.462 17.7096C145.717 17.3345 145.743 16.8552 145.532 16.454C145.322 16.0528 144.908 15.8061 144.455 15.8061H127.319C126.182 15.8061 125.255 16.7328 125.255 17.8701C125.255 19.0074 126.182 19.9341 127.319 19.9341H138.805L125.329 39.7339C125.074 40.109 125.048 40.5904 125.259 40.9895C125.47 41.3887 125.883 41.6374 126.336 41.6374H144.036C145.173 41.6374 146.098 40.7127 146.098 39.5734C146.098 38.4361 145.173 37.5094 144.036 37.5094Z"
    fill="#382757" />
  <path
    d="M170.738 37.5094H158.687L172.164 17.7097C172.419 17.3366 172.447 16.8552 172.234 16.452C172.023 16.0528 171.608 15.8041 171.157 15.8041H154.019C152.882 15.8041 151.955 16.7308 151.955 17.8681C151.955 19.0054 152.88 19.9321 154.019 19.9321H165.504L152.029 39.7319C151.776 40.107 151.748 40.5884 151.959 40.9876C152.172 41.3867 152.583 41.6355 153.036 41.6355H170.736C171.873 41.6355 172.8 40.7108 172.8 39.5714C172.802 38.4361 171.875 37.5094 170.738 37.5094Z"
    fill="#382757" />
  <path
    d="M182.638 4.63351C181.501 4.63351 180.574 5.56022 180.574 6.69754V39.6476C180.574 40.785 181.499 41.7117 182.638 41.7117C183.776 41.7117 184.7 40.785 184.7 39.6476V6.69754C184.7 5.55821 183.776 4.63351 182.638 4.63351Z"
    fill="#382757" />
  <path
    d="M216.485 25.1073C216.138 23.9138 215.619 22.7765 214.941 21.7234C213.781 19.9262 212.167 18.4258 210.273 17.3888C207.28 15.758 203.712 15.3729 200.424 16.3297C197.107 17.2965 194.365 19.5049 192.708 22.5438C191.057 25.5686 190.676 29.0528 191.635 32.3624L191.645 32.3965C191.865 33.1307 192.22 34.0734 192.226 34.0915C193.328 36.669 195.171 38.6347 197.861 40.107C199.76 41.1481 201.901 41.6977 204.045 41.6977C205.276 41.6977 206.508 41.5191 207.706 41.1661C210.235 40.428 212.441 38.9657 214.106 36.9197L214.215 36.7833C214.64 36.2438 215.023 35.6721 215.356 35.0784C215.95 34.0173 215.568 32.6713 214.507 32.0776C214.178 31.8931 213.807 31.7968 213.432 31.7968C212.634 31.7968 211.896 32.228 211.507 32.9261C210.961 33.9009 210.241 34.7454 209.364 35.4374C209.286 35.4976 209.216 35.5638 209.178 35.6079C208.369 36.2076 207.459 36.661 206.468 36.9518C204.308 37.5857 201.951 37.3329 199.963 36.2498C198.651 35.5337 197.556 34.4746 196.778 33.1748L214.997 27.8292C216.158 27.4882 216.824 26.2687 216.485 25.1073ZM204.081 20.1889C205.489 20.1889 206.901 20.552 208.165 21.24C209.411 21.92 210.478 22.9089 211.25 24.1003C211.294 24.1685 211.336 24.2367 211.378 24.3069L195.516 28.9605C195.476 27.4621 195.837 25.9758 196.565 24.6439C197.658 22.6401 199.465 21.1838 201.658 20.5399C202.454 20.3093 203.271 20.1889 204.081 20.1889Z"
    fill="#382757" />
  <path
    d="M88.8849 30.162C88.2732 29.2654 87.3886 28.5192 86.2593 27.9435C84.4119 27.0028 82.0169 26.5735 79.7222 26.2125L79.3572 26.1563C77.7444 25.9056 76.0776 25.6448 75.0085 25.1032C74.1981 24.694 73.9093 24.2307 73.9093 23.3321C73.9093 21.589 75.8068 20.2751 78.3221 20.2751C81.3249 20.2751 82.9998 21.1517 84.8793 22.299C85.2283 22.5117 85.6294 22.624 86.0346 22.624C86.8169 22.624 87.527 22.2268 87.9342 21.5609C88.2431 21.0554 88.3373 20.4577 88.1969 19.88C88.0565 19.3023 87.7015 18.8149 87.194 18.506C86.153 17.8701 85.0157 17.2062 83.5795 16.6927C81.9628 16.113 80.2437 15.8322 78.3221 15.8322C76.0054 15.8322 73.8391 16.5362 72.2203 17.814C70.4431 19.2181 69.4643 21.1778 69.4643 23.3341C69.4643 25.9176 70.6879 27.9014 73.0006 29.0728C74.7016 29.9333 76.7215 30.2462 78.6732 30.5491L79.0322 30.6053C84.0408 31.3916 85.491 32.0956 85.491 33.7545C85.491 35.8085 83.435 37.1524 80.2538 37.1784H80.1394C76.7255 37.1784 74.8099 35.8666 73.7829 35.1626C73.6124 35.0462 73.466 34.9459 73.3215 34.8557C72.9685 34.635 72.5613 34.5187 72.1461 34.5187C71.3739 34.5187 70.6678 34.9098 70.2586 35.5637C69.6107 36.6048 69.9276 37.9788 70.9687 38.6267C71.0248 38.6628 71.1131 38.723 71.2114 38.7891L71.2716 38.8293C72.4911 39.6657 75.3495 41.6234 80.1414 41.6234H80.2939C83.0559 41.5993 85.4289 40.8552 87.1579 39.4731C88.9511 38.037 89.938 36.007 89.938 33.7545C89.938 32.3905 89.585 31.183 88.8849 30.162Z"
    fill="#382757" />
  <path
    d="M5.48801 70.5819C5.25934 70.5819 5.07881 70.5157 4.94643 70.3833C4.81404 70.2389 4.74785 70.0463 4.74785 69.8056V59.0101H0.686001C0.469369 59.0101 0.300878 58.9499 0.180527 58.8296C0.0601755 58.7092 0 58.5528 0 58.3602C0 58.1556 0.0601755 57.9991 0.180527 57.8908C0.300878 57.7825 0.469369 57.7284 0.686001 57.7284H10.3081C10.5247 57.7284 10.6932 57.7825 10.8135 57.8908C10.9339 57.9991 10.9941 58.1556 10.9941 58.3602C10.9941 58.5648 10.9339 58.7273 10.8135 58.8476C10.6932 58.9559 10.5247 59.0101 10.3081 59.0101H6.24622V69.8056C6.24622 70.0463 6.18003 70.2389 6.04764 70.3833C5.92729 70.5157 5.74075 70.5819 5.48801 70.5819Z"
    fill="#382757" />
  <path
    d="M13.4664 70.5819C13.2257 70.5819 13.0452 70.5157 12.9249 70.3833C12.8045 70.2509 12.7443 70.0643 12.7443 69.8236V58.3421C12.7443 58.1014 12.8045 57.9209 12.9249 57.8006C13.0452 57.6682 13.2257 57.602 13.4664 57.602C13.6951 57.602 13.8756 57.6682 14.008 57.8006C14.1404 57.9209 14.2066 58.1014 14.2066 58.3421V63.6316H13.9719C14.2246 62.9335 14.6338 62.41 15.1995 62.061C15.7772 61.6999 16.4391 61.5194 17.1853 61.5194C17.8833 61.5194 18.461 61.6458 18.9183 61.8985C19.3877 62.1513 19.7367 62.5364 19.9654 63.0539C20.1941 63.5594 20.3084 64.2032 20.3084 64.9855V69.8236C20.3084 70.0643 20.2422 70.2509 20.1098 70.3833C19.9895 70.5157 19.815 70.5819 19.5863 70.5819C19.3456 70.5819 19.159 70.5157 19.0267 70.3833C18.9063 70.2509 18.8461 70.0643 18.8461 69.8236V65.0758C18.8461 64.2574 18.6837 63.6617 18.3587 63.2886C18.0458 62.9035 17.5403 62.7109 16.8423 62.7109C16.0359 62.7109 15.3921 62.9636 14.9107 63.4691C14.4413 63.9625 14.2066 64.6245 14.2066 65.4549V69.8236C14.2066 70.3291 13.9599 70.5819 13.4664 70.5819Z"
    fill="#382757" />
  <path
    d="M26.9583 70.618C26.0316 70.618 25.2312 70.4374 24.5573 70.0764C23.8953 69.7033 23.3778 69.1798 23.0047 68.5058C22.6437 67.8318 22.4632 67.0255 22.4632 66.0867C22.4632 65.1721 22.6437 64.3778 23.0047 63.7038C23.3658 63.0178 23.8592 62.4822 24.485 62.0971C25.1229 61.712 25.8571 61.5194 26.6875 61.5194C27.2772 61.5194 27.8067 61.6217 28.2761 61.8263C28.7455 62.0189 29.1426 62.3017 29.4676 62.6748C29.8046 63.0479 30.0573 63.4992 30.2258 64.0287C30.4063 64.5583 30.4966 65.154 30.4966 65.8159C30.4966 66.0085 30.4424 66.1529 30.3341 66.2492C30.2258 66.3335 30.0693 66.3756 29.8647 66.3756H23.5824V65.4188H29.5217L29.2329 65.6535C29.2329 65.0036 29.1366 64.456 28.9441 64.0107C28.7515 63.5533 28.4687 63.2043 28.0956 62.9636C27.7345 62.7229 27.2772 62.6026 26.7236 62.6026C26.1098 62.6026 25.5863 62.747 25.153 63.0358C24.7318 63.3126 24.4128 63.7038 24.1962 64.2093C23.9796 64.7027 23.8713 65.2804 23.8713 65.9423V66.0506C23.8713 67.1579 24.136 68.0003 24.6656 68.578C25.2072 69.1557 25.9714 69.4445 26.9583 69.4445C27.3675 69.4445 27.7706 69.3904 28.1678 69.2821C28.577 69.1737 28.9741 68.9932 29.3593 68.7405C29.5278 68.6322 29.6782 68.584 29.8106 68.5961C29.955 68.5961 30.0693 68.6382 30.1536 68.7224C30.2378 68.7946 30.292 68.8909 30.3161 69.0113C30.3522 69.1196 30.3401 69.2399 30.28 69.3723C30.2318 69.5047 30.1295 69.619 29.9731 69.7153C29.5759 70.0042 29.1065 70.2268 28.5649 70.3833C28.0234 70.5397 27.4878 70.618 26.9583 70.618Z"
    fill="#382757" />
  <path
    d="M38.2058 70.5819C37.9651 70.5819 37.7785 70.5157 37.6461 70.3833C37.5258 70.2389 37.4656 70.0463 37.4656 69.8056V58.4866C37.4656 58.2338 37.5318 58.0473 37.6642 57.9269C37.7966 57.7946 37.9831 57.7284 38.2238 57.7284H42.5023C43.8623 57.7284 44.9093 58.0473 45.6435 58.6851C46.3776 59.323 46.7447 60.2317 46.7447 61.4111C46.7447 62.1573 46.5762 62.8072 46.2392 63.3608C45.9143 63.9024 45.4329 64.3176 44.795 64.6064C44.1571 64.8832 43.3929 65.0216 42.5023 65.0216L42.6828 64.7869H43.0439C43.5133 64.7869 43.9225 64.9073 44.2715 65.148C44.6205 65.3887 44.9394 65.7738 45.2283 66.3034L46.9613 69.5348C47.0576 69.7033 47.0997 69.8718 47.0877 70.0403C47.0877 70.1967 47.0335 70.3291 46.9252 70.4374C46.8169 70.5337 46.6604 70.5819 46.4558 70.5819C46.2512 70.5819 46.0828 70.5337 45.9504 70.4374C45.818 70.3412 45.7036 70.2027 45.6074 70.0222L43.6396 66.3756C43.3628 65.8581 43.0439 65.5151 42.6828 65.3466C42.3218 65.1661 41.8464 65.0758 41.2567 65.0758H38.9459V69.8056C38.9459 70.0463 38.8858 70.2389 38.7654 70.3833C38.6451 70.5157 38.4585 70.5819 38.2058 70.5819ZM38.9459 63.9024H42.2857C43.2726 63.9024 44.0187 63.6978 44.5242 63.2886C45.0297 62.8673 45.2824 62.2415 45.2824 61.4111C45.2824 60.6047 45.0297 59.997 44.5242 59.5878C44.0187 59.1666 43.2726 58.9559 42.2857 58.9559H38.9459V63.9024Z"
    fill="#382757" />
  <path
    d="M53.1029 70.618C52.1762 70.618 51.3758 70.4374 50.7019 70.0764C50.04 69.7033 49.5224 69.1798 49.1494 68.5058C48.7883 67.8318 48.6078 67.0255 48.6078 66.0867C48.6078 65.1721 48.7883 64.3778 49.1494 63.7038C49.5104 63.0178 50.0038 62.4822 50.6297 62.0971C51.2675 61.712 52.0017 61.5194 52.8321 61.5194C53.4218 61.5194 53.9514 61.6217 54.4207 61.8263C54.8901 62.0189 55.2873 62.3017 55.6122 62.6748C55.9492 63.0479 56.2019 63.4992 56.3704 64.0287C56.5509 64.5583 56.6412 65.154 56.6412 65.8159C56.6412 66.0085 56.587 66.1529 56.4787 66.2492C56.3704 66.3335 56.214 66.3756 56.0094 66.3756H49.727V65.4188H55.6664L55.3775 65.6535C55.3775 65.0036 55.2812 64.456 55.0887 64.0107C54.8961 63.5533 54.6133 63.2043 54.2402 62.9636C53.8792 62.7229 53.4218 62.6026 52.8682 62.6026C52.2544 62.6026 51.7309 62.747 51.2976 63.0358C50.8764 63.3126 50.5575 63.7038 50.3408 64.2093C50.1242 64.7027 50.0159 65.2804 50.0159 65.9423V66.0506C50.0159 67.1579 50.2807 68.0003 50.8102 68.578C51.3518 69.1557 52.116 69.4445 53.1029 69.4445C53.5121 69.4445 53.9153 69.3904 54.3124 69.2821C54.7216 69.1737 55.1188 68.9932 55.5039 68.7405C55.6724 68.6322 55.8228 68.584 55.9552 68.5961C56.0996 68.5961 56.214 68.6382 56.2982 68.7224C56.3825 68.7946 56.4366 68.8909 56.4607 69.0113C56.4968 69.1196 56.4848 69.2399 56.4246 69.3723C56.3764 69.5047 56.2741 69.619 56.1177 69.7153C55.7205 70.0042 55.2512 70.2268 54.7096 70.3833C54.168 70.5397 53.6324 70.618 53.1029 70.618Z"
    fill="#382757" />
  <path
    d="M61.7181 70.618C61.1765 70.618 60.6289 70.5518 60.0753 70.4194C59.5337 70.287 59.0282 70.0583 58.5589 69.7334C58.4385 69.6491 58.3543 69.5529 58.3061 69.4445C58.258 69.3242 58.2399 69.2098 58.252 69.1015C58.2761 68.9812 58.3242 68.8789 58.3964 68.7946C58.4806 68.7104 58.5769 68.6623 58.6852 68.6502C58.8056 68.6261 58.938 68.6502 59.0824 68.7224C59.5518 69.0113 60.0031 69.2159 60.4364 69.3362C60.8817 69.4445 61.3209 69.4987 61.7542 69.4987C62.4402 69.4987 62.9577 69.3723 63.3067 69.1196C63.6557 68.8668 63.8303 68.5238 63.8303 68.0906C63.8303 67.7536 63.7159 67.4888 63.4873 67.2963C63.2586 67.0917 62.8975 66.9352 62.4041 66.8269L60.7613 66.4658C60.0031 66.3094 59.4374 66.0386 59.0644 65.6535C58.7033 65.2684 58.5228 64.7689 58.5228 64.1551C58.5228 63.6135 58.6612 63.1502 58.938 62.765C59.2268 62.3679 59.63 62.061 60.1475 61.8444C60.665 61.6277 61.2668 61.5194 61.9528 61.5194C62.4823 61.5194 62.9818 61.5916 63.4511 61.736C63.9326 61.8684 64.3658 62.0851 64.7509 62.3859C64.8713 62.4702 64.9495 62.5725 64.9856 62.6928C65.0338 62.8012 65.0398 62.9155 65.0037 63.0358C64.9796 63.1442 64.9254 63.2404 64.8412 63.3247C64.757 63.3969 64.6547 63.439 64.5343 63.4511C64.414 63.4631 64.2876 63.427 64.1552 63.3427C63.7942 63.102 63.4271 62.9275 63.054 62.8192C62.6809 62.6989 62.3138 62.6387 61.9528 62.6387C61.2788 62.6387 60.7673 62.7711 60.4183 63.0358C60.0693 63.3006 59.8948 63.6496 59.8948 64.0829C59.8948 64.4199 60.0031 64.6967 60.2197 64.9133C60.4364 65.1299 60.7733 65.2864 61.2307 65.3827L62.8735 65.7257C63.6557 65.8942 64.2394 66.165 64.6246 66.5381C65.0217 66.8991 65.2203 67.3925 65.2203 68.0184C65.2203 68.8127 64.9014 69.4445 64.2635 69.9139C63.6257 70.3833 62.7772 70.618 61.7181 70.618Z"
    fill="#382757" />
  <path
    d="M68.1709 73.8313C67.9302 73.8313 67.7497 73.7651 67.6293 73.6328C67.509 73.5124 67.4488 73.3319 67.4488 73.0912V62.2957C67.4488 62.055 67.509 61.8745 67.6293 61.7541C67.7497 61.6217 67.9242 61.5555 68.1529 61.5555C68.3936 61.5555 68.5741 61.6217 68.6945 61.7541C68.8268 61.8745 68.893 62.055 68.893 62.2957V64.0107L68.6945 63.7579C68.887 63.0719 69.2661 62.5304 69.8318 62.1332C70.4095 61.724 71.0955 61.5194 71.8898 61.5194C72.6721 61.5194 73.3521 61.706 73.9297 62.079C74.5195 62.4401 74.9708 62.9636 75.2837 63.6496C75.6086 64.3236 75.7711 65.1299 75.7711 66.0687C75.7711 66.9954 75.6086 67.8017 75.2837 68.4877C74.9708 69.1617 74.5255 69.6852 73.9478 70.0583C73.3701 70.4314 72.6841 70.618 71.8898 70.618C71.0955 70.618 70.4155 70.4194 69.8498 70.0222C69.2842 69.613 68.8991 69.0714 68.6945 68.3975H68.9111V73.0912C68.9111 73.3319 68.8449 73.5124 68.7125 73.6328C68.5801 73.7651 68.3996 73.8313 68.1709 73.8313ZM71.5829 69.4445C72.1365 69.4445 72.6119 69.3121 73.009 69.0474C73.4182 68.7826 73.7311 68.3975 73.9478 67.892C74.1765 67.3865 74.2908 66.7788 74.2908 66.0687C74.2908 64.9735 74.0441 64.1371 73.5506 63.5594C73.0692 62.9817 72.4133 62.6928 71.5829 62.6928C71.0413 62.6928 70.5659 62.8252 70.1567 63.09C69.7475 63.3427 69.4286 63.7218 69.1999 64.2273C68.9833 64.7208 68.875 65.3345 68.875 66.0687C68.875 67.1518 69.1217 67.9883 69.6151 68.578C70.1086 69.1557 70.7645 69.4445 71.5829 69.4445Z"
    fill="#382757" />
  <path
    d="M81.6203 70.618C80.7658 70.618 80.0257 70.4314 79.3998 70.0583C78.774 69.6852 78.2866 69.1617 77.9376 68.4877C77.6006 67.8017 77.4321 66.9954 77.4321 66.0687C77.4321 65.3707 77.5284 64.7448 77.7209 64.1912C77.9135 63.6256 78.1963 63.1442 78.5694 62.747C78.9425 62.3498 79.3818 62.049 79.8873 61.8444C80.4048 61.6277 80.9824 61.5194 81.6203 61.5194C82.4748 61.5194 83.215 61.706 83.8408 62.079C84.4666 62.4521 84.948 62.9817 85.285 63.6677C85.634 64.3416 85.8085 65.142 85.8085 66.0687C85.8085 66.7667 85.7122 67.3925 85.5197 67.9462C85.3271 68.4998 85.0443 68.9812 84.6712 69.3904C84.2981 69.7875 83.8528 70.0944 83.3353 70.3111C82.8298 70.5157 82.2582 70.618 81.6203 70.618ZM81.6203 69.4445C82.1619 69.4445 82.6373 69.3121 83.0465 69.0474C83.4557 68.7826 83.7686 68.3975 83.9852 67.892C84.2139 67.3865 84.3282 66.7788 84.3282 66.0687C84.3282 64.9735 84.0815 64.1371 83.5881 63.5594C83.1066 62.9817 82.4507 62.6928 81.6203 62.6928C81.0667 62.6928 80.5853 62.8252 80.1761 63.09C79.7789 63.3427 79.466 63.7218 79.2374 64.2273C79.0207 64.7208 78.9124 65.3345 78.9124 66.0687C78.9124 67.1518 79.1591 67.9883 79.6526 68.578C80.146 69.1557 80.8019 69.4445 81.6203 69.4445Z"
    fill="#382757" />
  <path
    d="M88.727 70.5819C88.4863 70.5819 88.3058 70.5157 88.1854 70.3833C88.0651 70.2509 88.0049 70.0643 88.0049 69.8236V62.2957C88.0049 62.055 88.0651 61.8745 88.1854 61.7541C88.3058 61.6217 88.4803 61.5555 88.7089 61.5555C88.9376 61.5555 89.1121 61.6217 89.2325 61.7541C89.3649 61.8745 89.431 62.055 89.431 62.2957V63.8482L89.2325 63.6316C89.4852 62.9335 89.8944 62.41 90.46 62.061C91.0377 61.6999 91.6997 61.5194 92.4458 61.5194C93.1439 61.5194 93.7216 61.6458 94.1789 61.8985C94.6483 62.1513 94.9973 62.5364 95.2259 63.0539C95.4546 63.5594 95.5689 64.2032 95.5689 64.9855V69.8236C95.5689 70.0643 95.5028 70.2509 95.3704 70.3833C95.25 70.5157 95.0755 70.5819 94.8468 70.5819C94.6061 70.5819 94.4196 70.5157 94.2872 70.3833C94.1669 70.2509 94.1067 70.0643 94.1067 69.8236V65.0758C94.1067 64.2574 93.9442 63.6617 93.6193 63.2886C93.3064 62.9035 92.8009 62.7109 92.1028 62.7109C91.2965 62.7109 90.6526 62.9636 90.1712 63.4691C89.7018 63.9625 89.4671 64.6245 89.4671 65.4549V69.8236C89.4671 70.3291 89.2204 70.5819 88.727 70.5819Z"
    fill="#382757" />
  <path
    d="M101.226 70.618C100.684 70.618 100.137 70.5518 99.5831 70.4194C99.0415 70.287 98.5361 70.0583 98.0667 69.7334C97.9464 69.6491 97.8621 69.5529 97.814 69.4445C97.7658 69.3242 97.7478 69.2098 97.7598 69.1015C97.7839 68.9812 97.832 68.8789 97.9042 68.7946C97.9885 68.7104 98.0847 68.6623 98.1931 68.6502C98.3134 68.6261 98.4458 68.6502 98.5902 68.7224C99.0596 69.0113 99.5109 69.2159 99.9442 69.3362C100.389 69.4445 100.829 69.4987 101.262 69.4987C101.948 69.4987 102.466 69.3723 102.815 69.1196C103.164 68.8668 103.338 68.5238 103.338 68.0906C103.338 67.7536 103.224 67.4888 102.995 67.2963C102.766 67.0917 102.405 66.9352 101.912 66.8269L100.269 66.4658C99.5109 66.3094 98.9453 66.0386 98.5722 65.6535C98.2111 65.2684 98.0306 64.7689 98.0306 64.1551C98.0306 63.6135 98.169 63.1502 98.4458 62.765C98.7346 62.3679 99.1378 62.061 99.6553 61.8444C100.173 61.6277 100.775 61.5194 101.461 61.5194C101.99 61.5194 102.49 61.5916 102.959 61.736C103.44 61.8684 103.874 62.0851 104.259 62.3859C104.379 62.4702 104.457 62.5725 104.493 62.6928C104.542 62.8012 104.548 62.9155 104.511 63.0358C104.487 63.1442 104.433 63.2404 104.349 63.3247C104.265 63.3969 104.162 63.439 104.042 63.4511C103.922 63.4631 103.795 63.427 103.663 63.3427C103.302 63.102 102.935 62.9275 102.562 62.8192C102.189 62.6989 101.822 62.6387 101.461 62.6387C100.787 62.6387 100.275 62.7711 99.9261 63.0358C99.5771 63.3006 99.4026 63.6496 99.4026 64.0829C99.4026 64.4199 99.5109 64.6967 99.7275 64.9133C99.9442 65.1299 100.281 65.2864 100.738 65.3827L102.381 65.7257C103.164 65.8942 103.747 66.165 104.132 66.5381C104.53 66.8991 104.728 67.3925 104.728 68.0184C104.728 68.8127 104.409 69.4445 103.771 69.9139C103.133 70.3833 102.285 70.618 101.226 70.618Z"
    fill="#382757" />
  <path
    d="M107.679 70.5457C107.438 70.5457 107.258 70.4796 107.137 70.3472C107.017 70.2027 106.957 70.0042 106.957 69.7514V62.3679C106.957 62.1152 107.017 61.9226 107.137 61.7902C107.258 61.6578 107.438 61.5916 107.679 61.5916C107.907 61.5916 108.088 61.6578 108.22 61.7902C108.353 61.9226 108.419 62.1152 108.419 62.3679V69.7514C108.419 70.0042 108.353 70.2027 108.22 70.3472C108.1 70.4796 107.919 70.5457 107.679 70.5457ZM107.679 59.5697C107.378 59.5697 107.143 59.4915 106.975 59.335C106.806 59.1666 106.722 58.9439 106.722 58.6671C106.722 58.3783 106.806 58.1616 106.975 58.0172C107.143 57.8607 107.378 57.7825 107.679 57.7825C107.992 57.7825 108.226 57.8607 108.383 58.0172C108.551 58.1616 108.636 58.3783 108.636 58.6671C108.636 58.9439 108.551 59.1666 108.383 59.335C108.226 59.4915 107.992 59.5697 107.679 59.5697Z"
    fill="#382757" />
  <path
    d="M115.593 70.618C114.799 70.618 114.113 70.4134 113.535 70.0042C112.97 69.595 112.591 69.0474 112.398 68.3614L112.597 68.1628V69.8236C112.597 70.0643 112.531 70.2509 112.398 70.3833C112.278 70.5157 112.103 70.5819 111.875 70.5819C111.634 70.5819 111.453 70.5157 111.333 70.3833C111.213 70.2509 111.152 70.0643 111.152 69.8236V58.3421C111.152 58.1014 111.213 57.9209 111.333 57.8006C111.453 57.6682 111.634 57.602 111.875 57.602C112.103 57.602 112.284 57.6682 112.416 57.8006C112.549 57.9209 112.615 58.1014 112.615 58.3421V63.7218H112.398C112.603 63.0479 112.988 62.5123 113.553 62.1152C114.119 61.718 114.799 61.5194 115.593 61.5194C116.388 61.5194 117.074 61.706 117.651 62.079C118.229 62.4401 118.674 62.9636 118.987 63.6496C119.312 64.3236 119.475 65.1299 119.475 66.0687C119.475 66.9954 119.312 67.8017 118.987 68.4877C118.674 69.1617 118.223 69.6852 117.633 70.0583C117.056 70.4314 116.376 70.618 115.593 70.618ZM115.287 69.4445C115.84 69.4445 116.316 69.3121 116.713 69.0474C117.122 68.7826 117.435 68.3975 117.651 67.892C117.88 67.3865 117.994 66.7788 117.994 66.0687C117.994 64.9735 117.748 64.1371 117.254 63.5594C116.773 62.9817 116.117 62.6928 115.287 62.6928C114.745 62.6928 114.27 62.8252 113.86 63.09C113.451 63.3427 113.132 63.7218 112.904 64.2273C112.687 64.7208 112.579 65.3345 112.579 66.0687C112.579 67.1518 112.825 67.9883 113.319 68.578C113.812 69.1557 114.468 69.4445 115.287 69.4445Z"
    fill="#382757" />
  <path
    d="M124.349 70.618C123.483 70.618 122.821 70.3532 122.363 69.8236C121.906 69.2941 121.677 68.5359 121.677 67.549V58.3421C121.677 58.1014 121.737 57.9209 121.858 57.8006C121.978 57.6682 122.159 57.602 122.399 57.602C122.628 57.602 122.809 57.6682 122.941 57.8006C123.073 57.9209 123.14 58.1014 123.14 58.3421V67.4407C123.14 68.0906 123.266 68.578 123.519 68.903C123.783 69.2159 124.169 69.3723 124.674 69.3723C124.782 69.3723 124.879 69.3663 124.963 69.3543C125.047 69.3422 125.131 69.3362 125.216 69.3362C125.348 69.3242 125.438 69.3543 125.486 69.4265C125.547 69.4987 125.577 69.6431 125.577 69.8597C125.577 70.0764 125.529 70.2389 125.432 70.3472C125.336 70.4555 125.18 70.5277 124.963 70.5638C124.867 70.5758 124.764 70.5879 124.656 70.5999C124.548 70.6119 124.445 70.618 124.349 70.618Z"
    fill="#382757" />
  <path
    d="M130.884 70.618C129.958 70.618 129.157 70.4374 128.483 70.0764C127.822 69.7033 127.304 69.1798 126.931 68.5058C126.57 67.8318 126.389 67.0255 126.389 66.0867C126.389 65.1721 126.57 64.3778 126.931 63.7038C127.292 63.0178 127.785 62.4822 128.411 62.0971C129.049 61.712 129.783 61.5194 130.614 61.5194C131.203 61.5194 131.733 61.6217 132.202 61.8263C132.672 62.0189 133.069 62.3017 133.394 62.6748C133.731 63.0479 133.983 63.4992 134.152 64.0287C134.333 64.5583 134.423 65.154 134.423 65.8159C134.423 66.0085 134.369 66.1529 134.26 66.2492C134.152 66.3335 133.996 66.3756 133.791 66.3756H127.509V65.4188H133.448L133.159 65.6535C133.159 65.0036 133.063 64.456 132.87 64.0107C132.678 63.5533 132.395 63.2043 132.022 62.9636C131.661 62.7229 131.203 62.6026 130.65 62.6026C130.036 62.6026 129.512 62.747 129.079 63.0358C128.658 63.3126 128.339 63.7038 128.122 64.2093C127.906 64.7027 127.797 65.2804 127.797 65.9423V66.0506C127.797 67.1579 128.062 68.0003 128.592 68.578C129.133 69.1557 129.898 69.4445 130.884 69.4445C131.294 69.4445 131.697 69.3904 132.094 69.2821C132.503 69.1737 132.9 68.9932 133.285 68.7405C133.454 68.6322 133.604 68.584 133.737 68.5961C133.881 68.5961 133.996 68.6382 134.08 68.7224C134.164 68.7946 134.218 68.8909 134.242 69.0113C134.278 69.1196 134.266 69.2399 134.206 69.3723C134.158 69.5047 134.056 69.619 133.899 69.7153C133.502 70.0042 133.033 70.2268 132.491 70.3833C131.95 70.5397 131.414 70.618 130.884 70.618Z"
    fill="#382757" />
  <path
    d="M145.472 70.5819C145.255 70.5819 145.081 70.5277 144.948 70.4194C144.816 70.299 144.707 70.1245 144.623 69.8959L140.634 58.5046C140.549 58.2519 140.567 58.0413 140.688 57.8728C140.82 57.6923 141.025 57.602 141.302 57.602C141.506 57.602 141.669 57.6561 141.789 57.7645C141.909 57.8607 142.012 58.0172 142.096 58.2338L145.833 69.1918H145.201L149.01 58.288C149.094 58.0593 149.197 57.8908 149.317 57.7825C149.437 57.6622 149.6 57.602 149.804 57.602C149.997 57.602 150.147 57.6622 150.256 57.7825C150.376 57.8908 150.478 58.0593 150.563 58.288L154.318 69.1918H153.758L157.531 58.2338C157.591 58.0292 157.681 57.8728 157.802 57.7645C157.934 57.6561 158.103 57.602 158.307 57.602C158.56 57.602 158.746 57.6862 158.867 57.8547C158.987 58.0232 158.999 58.2398 158.903 58.5046L154.895 69.8959C154.811 70.1245 154.703 70.299 154.57 70.4194C154.45 70.5277 154.275 70.5819 154.047 70.5819C153.83 70.5819 153.656 70.5277 153.523 70.4194C153.403 70.299 153.295 70.1245 153.198 69.8959L149.57 59.4434H149.967L146.302 69.8959C146.218 70.1245 146.116 70.299 145.995 70.4194C145.875 70.5277 145.7 70.5819 145.472 70.5819Z"
    fill="#382757" />
  <path
    d="M162.801 70.618C162.2 70.618 161.658 70.5036 161.177 70.275C160.707 70.0343 160.334 69.7093 160.057 69.3001C159.78 68.8909 159.642 68.4336 159.642 67.9281C159.642 67.2782 159.805 66.7667 160.129 66.3936C160.466 66.0205 161.014 65.7558 161.772 65.5993C162.543 65.4429 163.59 65.3646 164.913 65.3646H165.726V66.3214H164.932C163.957 66.3214 163.186 66.3696 162.621 66.4658C162.067 66.5501 161.676 66.7005 161.447 66.9172C161.231 67.1338 161.122 67.4407 161.122 67.8378C161.122 68.3313 161.291 68.7345 161.628 69.0474C161.977 69.3603 162.446 69.5167 163.036 69.5167C163.517 69.5167 163.939 69.4024 164.3 69.1737C164.673 68.9451 164.962 68.6322 165.166 68.235C165.383 67.8378 165.491 67.3805 165.491 66.863V64.805C165.491 64.0588 165.341 63.5233 165.04 63.1983C164.739 62.8613 164.245 62.6928 163.559 62.6928C163.138 62.6928 162.717 62.747 162.296 62.8553C161.875 62.9636 161.429 63.1381 160.96 63.3788C160.791 63.4631 160.647 63.4932 160.527 63.4691C160.406 63.433 160.31 63.3668 160.238 63.2705C160.166 63.1742 160.123 63.0659 160.111 62.9456C160.099 62.8132 160.123 62.6868 160.184 62.5665C160.256 62.4461 160.364 62.3498 160.509 62.2776C161.038 62.0129 161.562 61.8203 162.079 61.6999C162.597 61.5796 163.09 61.5194 163.559 61.5194C164.318 61.5194 164.944 61.6458 165.437 61.8985C165.93 62.1392 166.297 62.5123 166.538 63.0178C166.779 63.5112 166.899 64.1491 166.899 64.9314V69.8236C166.899 70.0643 166.839 70.2509 166.719 70.3833C166.61 70.5157 166.448 70.5819 166.231 70.5819C166.003 70.5819 165.828 70.5157 165.708 70.3833C165.587 70.2509 165.527 70.0643 165.527 69.8236V68.4155H165.69C165.593 68.8729 165.407 69.264 165.13 69.589C164.865 69.9139 164.534 70.1666 164.137 70.3472C163.74 70.5277 163.295 70.618 162.801 70.618Z"
    fill="#382757" />
  <path
    d="M171.474 73.8313C171.293 73.8313 171.149 73.7832 171.04 73.6869C170.932 73.5906 170.866 73.4582 170.842 73.2898C170.83 73.1333 170.86 72.9708 170.932 72.8023L172.178 70.0042V70.636L168.712 62.5845C168.639 62.404 168.615 62.2355 168.639 62.079C168.663 61.9226 168.736 61.7962 168.856 61.6999C168.976 61.6037 169.145 61.5555 169.361 61.5555C169.554 61.5555 169.704 61.5976 169.813 61.6819C169.921 61.7661 170.017 61.9166 170.102 62.1332L173.062 69.3904H172.575L175.572 62.1332C175.668 61.9166 175.77 61.7661 175.878 61.6819C175.987 61.5976 176.143 61.5555 176.348 61.5555C176.54 61.5555 176.685 61.6037 176.781 61.6999C176.889 61.7962 176.95 61.9226 176.962 62.079C176.986 62.2235 176.962 62.3859 176.889 62.5665L172.268 73.2536C172.172 73.4703 172.063 73.6207 171.943 73.705C171.835 73.7892 171.678 73.8313 171.474 73.8313Z"
    fill="#382757" />
  <path
    d="M186.972 70.618C186.286 70.618 185.708 70.4976 185.238 70.2569C184.781 70.0042 184.438 69.6431 184.209 69.1737C183.981 68.6923 183.866 68.1086 183.866 67.4226V62.8192H182.657C182.452 62.8192 182.296 62.7711 182.188 62.6748C182.079 62.5665 182.025 62.422 182.025 62.2415C182.025 62.061 182.079 61.9226 182.188 61.8263C182.296 61.73 182.452 61.6819 182.657 61.6819H183.866V59.6058C183.866 59.3651 183.933 59.1846 184.065 59.0643C184.197 58.9319 184.378 58.8657 184.607 58.8657C184.835 58.8657 185.01 58.9319 185.13 59.0643C185.263 59.1846 185.329 59.3651 185.329 59.6058V61.6819H187.603C187.808 61.6819 187.964 61.73 188.073 61.8263C188.181 61.9226 188.235 62.061 188.235 62.2415C188.235 62.422 188.181 62.5665 188.073 62.6748C187.964 62.7711 187.808 62.8192 187.603 62.8192H185.329V67.2782C185.329 67.9642 185.473 68.4877 185.762 68.8488C186.051 69.1978 186.52 69.3723 187.17 69.3723C187.399 69.3723 187.591 69.3483 187.748 69.3001C187.916 69.252 188.055 69.2279 188.163 69.2279C188.271 69.2159 188.362 69.252 188.434 69.3362C188.506 69.4205 188.542 69.5649 188.542 69.7695C188.542 69.9139 188.512 70.0463 188.452 70.1666C188.404 70.287 188.313 70.3712 188.181 70.4194C188.037 70.4675 187.844 70.5096 187.603 70.5457C187.375 70.5939 187.164 70.618 186.972 70.618Z"
    fill="#382757" />
  <path
    d="M193.321 70.618C192.467 70.618 191.726 70.4314 191.101 70.0583C190.475 69.6852 189.987 69.1617 189.638 68.4877C189.301 67.8017 189.133 66.9954 189.133 66.0687C189.133 65.3707 189.229 64.7448 189.422 64.1912C189.614 63.6256 189.897 63.1442 190.27 62.747C190.643 62.3498 191.083 62.049 191.588 61.8444C192.106 61.6277 192.683 61.5194 193.321 61.5194C194.176 61.5194 194.916 61.706 195.542 62.079C196.167 62.4521 196.649 62.9817 196.986 63.6677C197.335 64.3416 197.509 65.142 197.509 66.0687C197.509 66.7667 197.413 67.3925 197.221 67.9462C197.028 68.4998 196.745 68.9812 196.372 69.3904C195.999 69.7875 195.554 70.0944 195.036 70.3111C194.531 70.5157 193.959 70.618 193.321 70.618ZM193.321 69.4445C193.863 69.4445 194.338 69.3121 194.747 69.0474C195.156 68.7826 195.469 68.3975 195.686 67.892C195.915 67.3865 196.029 66.7788 196.029 66.0687C196.029 64.9735 195.782 64.1371 195.289 63.5594C194.807 62.9817 194.152 62.6928 193.321 62.6928C192.768 62.6928 192.286 62.8252 191.877 63.09C191.48 63.3427 191.167 63.7218 190.938 64.2273C190.722 64.7208 190.613 65.3345 190.613 66.0687C190.613 67.1518 190.86 67.9883 191.353 68.578C191.847 69.1557 192.503 69.4445 193.321 69.4445Z"
    fill="#382757" />
  <path
    d="M205.299 70.5819C205.058 70.5819 204.871 70.5157 204.739 70.3833C204.619 70.2389 204.558 70.0463 204.558 69.8056V58.4866C204.558 58.2338 204.625 58.0473 204.757 57.9269C204.889 57.7946 205.076 57.7284 205.317 57.7284H209.595C210.955 57.7284 212.002 58.0653 212.736 58.7393C213.47 59.4012 213.838 60.34 213.838 61.5555C213.838 62.759 213.47 63.6978 212.736 64.3717C212.002 65.0457 210.955 65.3827 209.595 65.3827H206.039V69.8056C206.039 70.0463 205.979 70.2389 205.858 70.3833C205.738 70.5157 205.551 70.5819 205.299 70.5819ZM206.039 64.1371H209.415C210.39 64.1371 211.124 63.9204 211.617 63.4872C212.123 63.0419 212.375 62.398 212.375 61.5555C212.375 60.701 212.123 60.0572 211.617 59.6239C211.124 59.1786 210.39 58.9559 209.415 58.9559H206.039V64.1371Z"
    fill="#382757" />
  <path
    d="M218.105 70.618C217.503 70.618 216.962 70.5036 216.48 70.275C216.011 70.0343 215.638 69.7093 215.361 69.3001C215.084 68.8909 214.946 68.4336 214.946 67.9281C214.946 67.2782 215.108 66.7667 215.433 66.3936C215.77 66.0205 216.318 65.7558 217.076 65.5993C217.846 65.4429 218.893 65.3646 220.217 65.3646H221.03V66.3214H220.235C219.261 66.3214 218.49 66.3696 217.925 66.4658C217.371 66.5501 216.98 66.7005 216.751 66.9172C216.535 67.1338 216.426 67.4407 216.426 67.8378C216.426 68.3313 216.595 68.7345 216.932 69.0474C217.281 69.3603 217.75 69.5167 218.34 69.5167C218.821 69.5167 219.242 69.4024 219.604 69.1737C219.977 68.9451 220.265 68.6322 220.47 68.235C220.687 67.8378 220.795 67.3805 220.795 66.863V64.805C220.795 64.0588 220.645 63.5233 220.344 63.1983C220.043 62.8613 219.549 62.6928 218.863 62.6928C218.442 62.6928 218.021 62.747 217.6 62.8553C217.178 62.9636 216.733 63.1381 216.264 63.3788C216.095 63.4631 215.951 63.4932 215.831 63.4691C215.71 63.433 215.614 63.3668 215.542 63.2705C215.469 63.1742 215.427 63.0659 215.415 62.9456C215.403 62.8132 215.427 62.6868 215.488 62.5665C215.56 62.4461 215.668 62.3498 215.812 62.2776C216.342 62.0129 216.866 61.8203 217.383 61.6999C217.901 61.5796 218.394 61.5194 218.863 61.5194C219.622 61.5194 220.247 61.6458 220.741 61.8985C221.234 62.1392 221.601 62.5123 221.842 63.0178C222.083 63.5112 222.203 64.1491 222.203 64.9314V69.8236C222.203 70.0643 222.143 70.2509 222.023 70.3833C221.914 70.5157 221.752 70.5819 221.535 70.5819C221.307 70.5819 221.132 70.5157 221.012 70.3833C220.891 70.2509 220.831 70.0643 220.831 69.8236V68.4155H220.994C220.897 68.8729 220.711 69.264 220.434 69.589C220.169 69.9139 219.838 70.1666 219.441 70.3472C219.044 70.5277 218.599 70.618 218.105 70.618Z"
    fill="#382757" />
  <path
    d="M226.777 73.8313C226.597 73.8313 226.453 73.7832 226.344 73.6869C226.236 73.5906 226.17 73.4582 226.146 73.2898C226.134 73.1333 226.164 72.9708 226.236 72.8023L227.482 70.0042V70.636L224.015 62.5845C223.943 62.404 223.919 62.2355 223.943 62.079C223.967 61.9226 224.04 61.7962 224.16 61.6999C224.28 61.6037 224.449 61.5555 224.665 61.5555C224.858 61.5555 225.008 61.5976 225.117 61.6819C225.225 61.7661 225.321 61.9166 225.406 62.1332L228.366 69.3904H227.879L230.875 62.1332C230.972 61.9166 231.074 61.7661 231.182 61.6819C231.291 61.5976 231.447 61.5555 231.652 61.5555C231.844 61.5555 231.989 61.6037 232.085 61.6999C232.193 61.7962 232.253 61.9226 232.266 62.079C232.29 62.2235 232.266 62.3859 232.193 62.5665L227.572 73.2536C227.476 73.4703 227.367 73.6207 227.247 73.705C227.139 73.7892 226.982 73.8313 226.777 73.8313Z"
    fill="#382757" />
  <defs>
    <linearGradient id="paint0_linear_101_615" x1="35.7459" y1="34.1326" x2="27.6149" y2="24.4424"
      gradientUnits="userSpaceOnUse">
      <stop stop-color="#CE5DCB" />
      <stop offset="0.2095" stop-color="#C558CC" />
      <stop offset="0.5525" stop-color="#AC4ACF" />
      <stop offset="0.9845" stop-color="#8534D4" />
      <stop offset="1" stop-color="#8333D4" />
    </linearGradient>
    <linearGradient id="paint1_linear_101_615" x1="36.0409" y1="23.1027" x2="53.5125" y2="23.1027"
      gradientUnits="userSpaceOnUse">
      <stop offset="0.0237" stop-color="#FF5667" />
      <stop offset="0.6592" stop-color="#FC8B82" />
      <stop offset="1" stop-color="#FBA28E" />
    </linearGradient>
    <linearGradient id="paint2_linear_101_615" x1="16.4777" y1="16.8237" x2="40.5238" y2="16.8237"
      gradientUnits="userSpaceOnUse">
      <stop stop-color="#00B874" />
      <stop offset="0.5126" stop-color="#29D3A2" />
      <stop offset="0.6817" stop-color="#53DFB6" />
      <stop offset="1" stop-color="#9FF4D9" />
    </linearGradient>
    <linearGradient id="paint3_linear_101_615" x1="32.8632" y1="33.209" x2="56.909" y2="33.209"
      gradientUnits="userSpaceOnUse">
      <stop stop-color="#FCD77E" />
      <stop offset="0.5241" stop-color="#FEA500" />
      <stop offset="1" stop-color="#FF5B00" />
    </linearGradient>
  </defs>
</svg>