<svg width="360" height="139" viewBox="0 0 360 139" fill="none" xmlns="http://www.w3.org/2000/svg">
  <rect width="359.565" height="138.551" fill="white" />
  <path
    d="M58.3442 64.6346C63.8159 70.1063 72.6856 70.1063 78.1573 64.6346L78.6812 64.1107C81.4146 61.3772 75.9454 47.0334 78.6812 44.2976L58.3442 64.6346Z"
    fill="url(#paint0_linear_26_509)" />
  <path
    d="M79.2099 43.7688L78.686 44.2927C75.9526 47.0261 81.4219 61.37 78.686 64.1034L99.023 43.7664C96.2872 41.0306 92.7024 39.6626 89.1177 39.6626C85.5305 39.6651 81.9433 41.033 79.2099 43.7688Z"
    fill="url(#paint1_linear_26_509)" />
  <path
    d="M58.3443 44.8215C52.8726 50.2932 52.8726 59.1628 58.3443 64.6321L79.2124 43.764C84.6841 38.2923 84.6841 29.4226 79.2124 23.9509L58.3443 44.8215Z"
    fill="url(#paint2_linear_26_509)" />
  <path
    d="M78.1574 64.6345C72.6857 70.1062 72.6857 78.9759 78.1574 84.4476L99.0255 63.5795C104.497 58.1102 104.497 49.2381 99.0255 43.7688L78.1574 64.6345Z"
    fill="url(#paint3_linear_26_509)" />
  <path
    d="M180.204 54.3096C179.782 52.864 179.153 51.4888 178.334 50.2179C176.932 48.0448 174.979 46.2306 172.69 44.9766C169.071 43.0048 164.756 42.5391 160.781 43.696C156.769 44.8651 153.454 47.5354 151.448 51.2099C149.452 54.8674 148.994 59.0828 150.153 63.0823L150.165 63.1235C150.432 64.016 150.861 65.1535 150.868 65.1729C152.2 68.2896 154.429 70.6689 157.681 72.4467C159.981 73.7055 162.566 74.3701 165.159 74.3701C166.648 74.3701 168.137 74.1542 169.585 73.7273C172.644 72.8348 175.312 71.0691 177.327 68.5903L177.453 68.4327C177.967 67.7827 178.433 67.089 178.836 66.3662C179.554 65.0832 179.093 63.4558 177.81 62.7378C177.412 62.5147 176.963 62.3983 176.51 62.3983C175.544 62.3983 174.652 62.9198 174.181 63.7638C173.524 64.9401 172.651 65.9636 171.591 66.8028C171.499 66.8756 171.414 66.9532 171.365 67.009C170.388 67.7342 169.287 68.2823 168.091 68.634C165.477 69.4028 162.627 69.0948 160.226 67.7851C158.639 66.9217 157.315 65.641 156.374 64.067L178.404 57.6033C179.806 57.1885 180.613 55.7139 180.204 54.3096ZM165.202 48.3625C166.905 48.3625 168.613 48.8015 170.141 49.6334C171.647 50.4556 172.937 51.6513 173.871 53.092C173.924 53.1745 173.975 53.257 174.029 53.3418L154.848 58.9688C154.8 57.157 155.234 55.3598 156.117 53.7493C157.439 51.3263 159.624 49.5655 162.273 48.7869C163.238 48.508 164.223 48.3625 165.202 48.3625Z"
    fill="#382757" />
  <path
    d="M208.479 69.3058H193.905L210.203 45.3647C210.511 44.9111 210.543 44.3315 210.288 43.8464C210.034 43.3613 209.534 43.063 208.986 43.063H188.266C186.89 43.063 185.77 44.1835 185.77 45.5587C185.77 46.9339 186.89 48.0545 188.266 48.0545H202.153L185.86 71.9956C185.552 72.4491 185.52 73.0312 185.775 73.5139C186.029 73.9965 186.529 74.2973 187.077 74.2973H208.479C209.854 74.2973 210.972 73.1792 210.972 71.8015C210.972 70.4263 209.854 69.3058 208.479 69.3058Z"
    fill="#382757" />
  <path
    d="M240.766 69.3058H226.194L242.49 45.3647C242.798 44.9136 242.832 44.3315 242.575 43.844C242.32 43.3613 241.818 43.0606 241.273 43.0606H220.55C219.175 43.0606 218.054 44.1811 218.054 45.5563C218.054 46.9315 219.172 48.0521 220.55 48.0521H234.438L218.144 71.9932C217.839 72.4467 217.805 73.0288 218.059 73.5115C218.316 73.9941 218.814 74.2949 219.362 74.2949H240.763C242.139 74.2949 243.259 73.1768 243.259 71.7991C243.262 70.4264 242.141 69.3058 240.766 69.3058Z"
    fill="#382757" />
  <path
    d="M255.156 29.5535C253.781 29.5535 252.66 30.674 252.66 32.0492V71.8913C252.66 73.2665 253.778 74.387 255.156 74.387C256.531 74.387 257.649 73.2665 257.649 71.8913V32.0492C257.649 30.6716 256.531 29.5535 255.156 29.5535Z"
    fill="#382757" />
  <path
    d="M296.082 54.3096C295.662 52.8665 295.034 51.4913 294.214 50.2179C292.812 48.0448 290.86 46.2306 288.57 44.9766C284.952 43.0048 280.637 42.5391 276.662 43.696C272.65 44.8651 269.335 47.5354 267.331 51.2099C265.335 54.8674 264.874 59.0803 266.034 63.0823L266.046 63.1235C266.313 64.0112 266.742 65.1511 266.749 65.1729C268.081 68.2896 270.31 70.6665 273.562 72.4467C275.859 73.7055 278.447 74.3701 281.04 74.3701C282.529 74.3701 284.018 74.1542 285.466 73.7273C288.524 72.8348 291.192 71.0667 293.205 68.5928L293.336 68.4278C293.851 67.7754 294.314 67.0842 294.716 66.3662C295.434 65.0832 294.973 63.4558 293.69 62.7378C293.293 62.5147 292.844 62.3983 292.39 62.3983C291.425 62.3983 290.533 62.9198 290.062 63.7638C289.402 64.9425 288.532 65.9636 287.472 66.8004C287.377 66.8732 287.292 66.9532 287.246 67.0065C286.269 67.7317 285.168 68.2799 283.969 68.6316C281.357 69.398 278.507 69.0924 276.104 67.7827C274.518 66.9168 273.193 65.6362 272.252 64.0645L294.282 57.6008C295.687 57.1885 296.492 55.7139 296.082 54.3096ZM281.083 48.3625C282.786 48.3625 284.493 48.8015 286.021 49.6334C287.527 50.4556 288.818 51.6513 289.752 53.092C289.805 53.1745 289.856 53.257 289.907 53.3418L270.727 58.9688C270.678 57.157 271.115 55.3598 271.995 53.7493C273.317 51.3263 275.502 49.5655 278.153 48.7869C279.116 48.508 280.103 48.3625 281.083 48.3625Z"
    fill="#382757" />
  <path
    d="M141.793 60.4216C141.053 59.3374 139.983 58.4352 138.618 57.7391C136.384 56.6016 133.488 56.0826 130.713 55.646L130.272 55.5781C128.322 55.2749 126.306 54.9596 125.014 54.3047C124.034 53.81 123.685 53.2497 123.685 52.1631C123.685 50.0554 125.979 48.4668 129.02 48.4668C132.651 48.4668 134.676 49.5267 136.949 50.914C137.371 51.1711 137.856 51.3069 138.346 51.3069C139.292 51.3069 140.151 50.8267 140.643 50.0215C141.016 49.4103 141.13 48.6875 140.961 47.989C140.791 47.2905 140.362 46.7011 139.748 46.3276C138.489 45.5587 137.114 44.7559 135.377 44.135C133.422 43.4341 131.344 43.0945 129.02 43.0945C126.219 43.0945 123.6 43.9459 121.642 45.4908C119.493 47.1886 118.31 49.5582 118.31 52.1655C118.31 55.2895 119.789 57.6882 122.586 59.1046C124.643 60.1451 127.085 60.5235 129.445 60.8897L129.879 60.9576C135.935 61.9084 137.689 62.7597 137.689 64.7655C137.689 67.2491 135.203 68.8741 131.356 68.9056H131.218C127.09 68.9056 124.774 67.3194 123.532 66.4681C123.326 66.3274 123.148 66.2062 122.974 66.097C122.547 65.8302 122.055 65.6896 121.553 65.6896C120.619 65.6896 119.765 66.1625 119.27 66.9532C118.487 68.212 118.87 69.8734 120.129 70.6568C120.197 70.7004 120.303 70.7732 120.422 70.8532L120.495 70.9018C121.97 71.9131 125.426 74.2803 131.22 74.2803H131.405C134.744 74.2512 137.614 73.3514 139.704 71.6803C141.873 69.9437 143.066 67.4892 143.066 64.7655C143.066 63.1162 142.639 61.6561 141.793 60.4216Z"
    fill="#382757" />
  <path
    d="M24.6757 109.296C24.3846 109.296 24.1591 109.216 23.999 109.056C23.8535 108.881 23.7807 108.648 23.7807 108.357V94.6707C23.7807 94.3651 23.8607 94.1395 24.0208 93.994C24.1809 93.8339 24.4065 93.7539 24.6975 93.7539H29.8709C31.5153 93.7539 32.7814 94.1614 33.6691 94.9763C34.5568 95.7767 35.0006 96.9118 35.0006 98.3816C35.0006 99.8368 34.5568 100.972 33.6691 101.787C32.7814 102.602 31.5153 103.009 29.8709 103.009H25.5706V108.357C25.5706 108.648 25.4979 108.881 25.3524 109.056C25.2068 109.216 24.9813 109.296 24.6757 109.296ZM25.5706 101.503H29.6526C30.8313 101.503 31.719 101.241 32.3157 100.717C32.9269 100.179 33.2325 99.4002 33.2325 98.3816C33.2325 97.3484 32.9269 96.5698 32.3157 96.0459C31.719 95.5075 30.8313 95.2383 29.6526 95.2383H25.5706V101.503Z"
    fill="#382757" />
  <path
    d="M40.1608 109.34C39.4332 109.34 38.7784 109.201 38.1963 108.925C37.6287 108.634 37.1776 108.241 36.8429 107.746C36.5082 107.251 36.3408 106.698 36.3408 106.087C36.3408 105.301 36.5373 104.683 36.9302 104.232C37.3377 103.781 37.9998 103.46 38.9166 103.271C39.848 103.082 41.114 102.987 42.7148 102.987H43.6971V104.144H42.7366C41.5579 104.144 40.6265 104.203 39.9426 104.319C39.2731 104.421 38.8002 104.603 38.5237 104.865C38.2618 105.127 38.1308 105.498 38.1308 105.978C38.1308 106.575 38.3345 107.062 38.742 107.44C39.164 107.819 39.7315 108.008 40.4446 108.008C41.0267 108.008 41.536 107.87 41.9726 107.593C42.4237 107.317 42.773 106.938 43.0204 106.458C43.2823 105.978 43.4133 105.425 43.4133 104.799V102.311C43.4133 101.408 43.2314 100.761 42.8676 100.368C42.5038 99.9605 41.9071 99.7568 41.0776 99.7568C40.5683 99.7568 40.059 99.8223 39.5496 99.9532C39.0403 100.084 38.5019 100.295 37.9343 100.586C37.7306 100.688 37.556 100.725 37.4104 100.695C37.2649 100.652 37.1485 100.572 37.0612 100.455C36.9739 100.339 36.9229 100.208 36.9084 100.062C36.8938 99.9023 36.9229 99.7495 36.9957 99.604C37.083 99.4584 37.214 99.342 37.3886 99.2547C38.0289 98.9346 38.6619 98.7017 39.2877 98.5562C39.9135 98.4107 40.5101 98.3379 41.0776 98.3379C41.9944 98.3379 42.7512 98.4907 43.3478 98.7963C43.9445 99.0874 44.3883 99.5385 44.6794 100.15C44.9704 100.746 45.1159 101.518 45.1159 102.464V108.379C45.1159 108.67 45.0432 108.896 44.8976 109.056C44.7667 109.216 44.5702 109.296 44.3083 109.296C44.0318 109.296 43.8208 109.216 43.6752 109.056C43.5297 108.896 43.457 108.67 43.457 108.379V106.676H43.6534C43.537 107.229 43.3114 107.702 42.9767 108.095C42.6566 108.488 42.2564 108.794 41.7762 109.012C41.2959 109.23 40.7575 109.34 40.1608 109.34Z"
    fill="#382757" />
  <path
    d="M50.6471 113.225C50.4288 113.225 50.2542 113.167 50.1232 113.05C49.9922 112.934 49.9122 112.774 49.8831 112.57C49.8685 112.381 49.9049 112.185 49.9922 111.981L51.4984 108.597V109.361L47.3073 99.6258C47.22 99.4075 47.1909 99.2038 47.22 99.0146C47.2491 98.8254 47.3364 98.6726 47.4819 98.5562C47.6275 98.4398 47.8312 98.3816 48.0931 98.3816C48.326 98.3816 48.5079 98.4325 48.6389 98.5344C48.7698 98.6362 48.8863 98.8181 48.9881 99.0801L52.568 107.855H51.9786L55.6022 99.0801C55.7186 98.8181 55.8423 98.6362 55.9733 98.5344C56.1042 98.4325 56.2934 98.3816 56.5408 98.3816C56.7737 98.3816 56.9483 98.4398 57.0647 98.5562C57.1957 98.6726 57.2684 98.8254 57.283 99.0146C57.3121 99.1892 57.283 99.3857 57.1957 99.604L51.6076 112.527C51.4911 112.788 51.3602 112.97 51.2146 113.072C51.0837 113.174 50.8945 113.225 50.6471 113.225Z"
    fill="#382757" />
  <path
    d="M64.1336 109.34C63.0131 109.34 62.0453 109.121 61.2304 108.685C60.43 108.234 59.8042 107.601 59.3531 106.786C58.9165 105.971 58.6983 104.996 58.6983 103.861C58.6983 102.755 58.9165 101.794 59.3531 100.979C59.7897 100.15 60.3863 99.5021 61.1431 99.0364C61.9143 98.5708 62.802 98.3379 63.8062 98.3379C64.5192 98.3379 65.1595 98.4616 65.7271 98.709C66.2946 98.9418 66.7748 99.2838 67.1678 99.7349C67.5752 100.186 67.8808 100.732 68.0846 101.372C68.3028 102.012 68.412 102.733 68.412 103.533C68.412 103.766 68.3465 103.941 68.2155 104.057C68.0846 104.159 67.8954 104.21 67.648 104.21H60.0516V103.053H67.2332L66.884 103.337C66.884 102.551 66.7676 101.889 66.5347 101.35C66.3019 100.797 65.9599 100.375 65.5088 100.084C65.0722 99.7932 64.5192 99.6476 63.8498 99.6476C63.1076 99.6476 62.4746 99.8223 61.9507 100.172C61.4414 100.506 61.0558 100.979 60.7938 101.59C60.5319 102.187 60.4009 102.886 60.4009 103.686V103.817C60.4009 105.156 60.7211 106.174 61.3614 106.873C62.0162 107.571 62.9403 107.921 64.1336 107.921C64.6284 107.921 65.1159 107.855 65.5961 107.724C66.0909 107.593 66.5711 107.375 67.0368 107.069C67.2405 106.938 67.4224 106.88 67.5825 106.895C67.7571 106.895 67.8954 106.946 67.9972 107.048C68.0991 107.135 68.1646 107.251 68.1937 107.397C68.2374 107.528 68.2228 107.673 68.15 107.833C68.0918 107.993 67.9681 108.132 67.779 108.248C67.2987 108.597 66.7312 108.867 66.0763 109.056C65.4215 109.245 64.7739 109.34 64.1336 109.34Z"
    fill="#382757" />
  <path
    d="M71.1247 109.143C70.9355 109.143 70.7827 109.099 70.6663 109.012C70.5499 108.925 70.4698 108.808 70.4262 108.663C70.3825 108.517 70.3825 108.357 70.4262 108.183C70.4698 108.008 70.5644 107.841 70.71 107.681L76.8656 99.4512V99.9096H71.0374C70.8046 99.9096 70.6226 99.8514 70.4917 99.7349C70.3753 99.604 70.317 99.4293 70.317 99.2111C70.317 98.9928 70.3753 98.8254 70.4917 98.709C70.6226 98.5926 70.8046 98.5344 71.0374 98.5344H77.7388C77.9571 98.5344 78.1317 98.578 78.2627 98.6653C78.4082 98.7527 78.5028 98.8691 78.5464 99.0146C78.5901 99.1456 78.5901 99.2984 78.5464 99.473C78.5173 99.6331 78.4373 99.7932 78.3063 99.9532L72.0415 108.27V107.768H78.1753C78.6556 107.768 78.8957 107.993 78.8957 108.445C78.8957 108.663 78.8302 108.837 78.6992 108.968C78.5828 109.085 78.4082 109.143 78.1753 109.143H71.1247Z"
    fill="#382757" />
  <path
    d="M90.6985 109.34C89.7526 109.34 88.9231 109.114 88.21 108.663C87.5115 108.212 86.9658 107.579 86.5729 106.764C86.1945 105.934 86.0053 104.959 86.0053 103.839C86.0053 102.704 86.1945 101.729 86.5729 100.914C86.9658 100.084 87.5115 99.4512 88.21 99.0146C88.9231 98.5635 89.7526 98.3379 90.6985 98.3379C91.6589 98.3379 92.4811 98.578 93.1651 99.0583C93.8491 99.5385 94.3075 100.186 94.5403 101.001H94.3002V94.4961C94.3002 94.205 94.3729 93.9867 94.5185 93.8412C94.6786 93.6811 94.9041 93.6011 95.1952 93.6011C95.4717 93.6011 95.6827 93.6811 95.8282 93.8412C95.9883 93.9867 96.0683 94.205 96.0683 94.4961V108.379C96.0683 108.67 95.9955 108.896 95.85 109.056C95.7045 109.216 95.4862 109.296 95.1952 109.296C94.9187 109.296 94.7004 109.216 94.5403 109.056C94.3948 108.896 94.322 108.67 94.322 108.379V106.305L94.5621 106.611C94.3293 107.44 93.8636 108.103 93.1651 108.597C92.4811 109.092 91.6589 109.34 90.6985 109.34ZM91.0696 107.921C91.7244 107.921 92.2992 107.761 92.794 107.44C93.2888 107.12 93.6672 106.655 93.9291 106.043C94.2056 105.432 94.3438 104.697 94.3438 103.839C94.3438 102.514 94.0455 101.503 93.4489 100.805C92.8668 100.106 92.0737 99.7568 91.0696 99.7568C90.4001 99.7568 89.818 99.9169 89.3233 100.237C88.843 100.543 88.4647 101.001 88.1882 101.612C87.9262 102.209 87.7953 102.951 87.7953 103.839C87.7953 105.148 88.0936 106.16 88.6902 106.873C89.2869 107.571 90.08 107.921 91.0696 107.921Z"
    fill="#382757" />
  <path
    d="M104.167 109.34C103.046 109.34 102.079 109.121 101.264 108.685C100.463 108.234 99.8375 107.601 99.3864 106.786C98.9499 105.971 98.7316 104.996 98.7316 103.861C98.7316 102.755 98.9499 101.794 99.3864 100.979C99.823 100.15 100.42 99.5021 101.176 99.0364C101.948 98.5708 102.835 98.3379 103.839 98.3379C104.553 98.3379 105.193 98.4616 105.76 98.709C106.328 98.9418 106.808 99.2838 107.201 99.7349C107.609 100.186 107.914 100.732 108.118 101.372C108.336 102.012 108.445 102.733 108.445 103.533C108.445 103.766 108.38 103.941 108.249 104.057C108.118 104.159 107.929 104.21 107.681 104.21H100.085V103.053H107.267L106.917 103.337C106.917 102.551 106.801 101.889 106.568 101.35C106.335 100.797 105.993 100.375 105.542 100.084C105.106 99.7932 104.553 99.6476 103.883 99.6476C103.141 99.6476 102.508 99.8223 101.984 100.172C101.475 100.506 101.089 100.979 100.827 101.59C100.565 102.187 100.434 102.886 100.434 103.686V103.817C100.434 105.156 100.754 106.174 101.395 106.873C102.05 107.571 102.974 107.921 104.167 107.921C104.662 107.921 105.149 107.855 105.629 107.724C106.124 107.593 106.604 107.375 107.07 107.069C107.274 106.938 107.456 106.88 107.616 106.895C107.79 106.895 107.929 106.946 108.031 107.048C108.132 107.135 108.198 107.251 108.227 107.397C108.271 107.528 108.256 107.673 108.183 107.833C108.125 107.993 108.001 108.132 107.812 108.248C107.332 108.597 106.764 108.867 106.11 109.056C105.455 109.245 104.807 109.34 104.167 109.34Z"
    fill="#382757" />
  <path
    d="M117.745 109.296C117.483 109.296 117.279 109.223 117.134 109.078C116.988 108.918 116.916 108.699 116.916 108.423V94.4743C116.916 94.1832 116.988 93.9649 117.134 93.8194C117.279 93.6739 117.483 93.6011 117.745 93.6011C117.978 93.6011 118.16 93.652 118.291 93.7539C118.436 93.8412 118.567 93.994 118.684 94.2123L124.665 105.476H124.01L129.969 94.2123C130.086 93.994 130.209 93.8412 130.34 93.7539C130.471 93.652 130.66 93.6011 130.908 93.6011C131.155 93.6011 131.352 93.6739 131.497 93.8194C131.643 93.9649 131.715 94.1832 131.715 94.4743V108.423C131.715 108.699 131.643 108.918 131.497 109.078C131.366 109.223 131.162 109.296 130.886 109.296C130.624 109.296 130.42 109.223 130.275 109.078C130.129 108.918 130.056 108.699 130.056 108.423V96.1551H130.58L125.123 106.393C125.021 106.582 124.912 106.72 124.796 106.807C124.694 106.88 124.541 106.917 124.337 106.917C124.134 106.917 123.974 106.873 123.857 106.786C123.741 106.698 123.639 106.567 123.552 106.393L118.029 96.1332H118.553V108.423C118.553 108.699 118.48 108.918 118.334 109.078C118.204 109.223 118.007 109.296 117.745 109.296Z"
    fill="#382757" />
  <path
    d="M138.645 109.34C137.918 109.34 137.263 109.201 136.681 108.925C136.113 108.634 135.662 108.241 135.327 107.746C134.993 107.251 134.825 106.698 134.825 106.087C134.825 105.301 135.022 104.683 135.415 104.232C135.822 103.781 136.484 103.46 137.401 103.271C138.332 103.082 139.598 102.987 141.199 102.987H142.182V104.144H141.221C140.042 104.144 139.111 104.203 138.427 104.319C137.758 104.421 137.285 104.603 137.008 104.865C136.746 105.127 136.615 105.498 136.615 105.978C136.615 106.575 136.819 107.062 137.226 107.44C137.648 107.819 138.216 108.008 138.929 108.008C139.511 108.008 140.021 107.87 140.457 107.593C140.908 107.317 141.257 106.938 141.505 106.458C141.767 105.978 141.898 105.425 141.898 104.799V102.311C141.898 101.408 141.716 100.761 141.352 100.368C140.988 99.9605 140.392 99.7568 139.562 99.7568C139.053 99.7568 138.543 99.8223 138.034 99.9532C137.525 100.084 136.986 100.295 136.419 100.586C136.215 100.688 136.04 100.725 135.895 100.695C135.749 100.652 135.633 100.572 135.546 100.455C135.458 100.339 135.407 100.208 135.393 100.062C135.378 99.9023 135.407 99.7495 135.48 99.604C135.567 99.4584 135.698 99.342 135.873 99.2547C136.513 98.9346 137.146 98.7017 137.772 98.5562C138.398 98.4107 138.995 98.3379 139.562 98.3379C140.479 98.3379 141.236 98.4907 141.832 98.7963C142.429 99.0874 142.873 99.5385 143.164 100.15C143.455 100.746 143.6 101.518 143.6 102.464V108.379C143.6 108.67 143.528 108.896 143.382 109.056C143.251 109.216 143.055 109.296 142.793 109.296C142.516 109.296 142.305 109.216 142.16 109.056C142.014 108.896 141.941 108.67 141.941 108.379V106.676H142.138C142.021 107.229 141.796 107.702 141.461 108.095C141.141 108.488 140.741 108.794 140.261 109.012C139.78 109.23 139.242 109.34 138.645 109.34Z"
    fill="#382757" />
  <path
    d="M147.754 109.296C147.463 109.296 147.244 109.216 147.099 109.056C146.953 108.896 146.881 108.67 146.881 108.379V99.2765C146.881 98.9855 146.953 98.7672 147.099 98.6217C147.244 98.4616 147.455 98.3816 147.732 98.3816C148.008 98.3816 148.219 98.4616 148.365 98.6217C148.525 98.7672 148.605 98.9855 148.605 99.2765V101.154L148.365 100.892C148.671 100.048 149.165 99.4148 149.849 98.9928C150.548 98.5562 151.348 98.3379 152.251 98.3379C153.095 98.3379 153.793 98.4907 154.346 98.7963C154.914 99.1019 155.336 99.5676 155.612 100.193C155.889 100.805 156.027 101.583 156.027 102.529V108.379C156.027 108.67 155.947 108.896 155.787 109.056C155.641 109.216 155.43 109.296 155.154 109.296C154.863 109.296 154.637 109.216 154.477 109.056C154.331 108.896 154.259 108.67 154.259 108.379V102.638C154.259 101.649 154.062 100.928 153.669 100.477C153.291 100.011 152.68 99.7786 151.836 99.7786C150.861 99.7786 150.082 100.084 149.5 100.695C148.933 101.292 148.649 102.092 148.649 103.097V108.379C148.649 108.99 148.35 109.296 147.754 109.296Z"
    fill="#382757" />
  <path
    d="M160.16 109.252C159.869 109.252 159.651 109.172 159.505 109.012C159.36 108.837 159.287 108.597 159.287 108.292V99.3639C159.287 99.0583 159.36 98.8254 159.505 98.6653C159.651 98.5053 159.869 98.4252 160.16 98.4252C160.437 98.4252 160.655 98.5053 160.815 98.6653C160.975 98.8254 161.055 99.0583 161.055 99.3639V108.292C161.055 108.597 160.975 108.837 160.815 109.012C160.67 109.172 160.451 109.252 160.16 109.252ZM160.16 95.9804C159.796 95.9804 159.513 95.8858 159.309 95.6967C159.105 95.4929 159.003 95.2237 159.003 94.889C159.003 94.5397 159.105 94.2778 159.309 94.1032C159.513 93.914 159.796 93.8194 160.16 93.8194C160.539 93.8194 160.822 93.914 161.012 94.1032C161.215 94.2778 161.317 94.5397 161.317 94.889C161.317 95.2237 161.215 95.4929 161.012 95.6967C160.822 95.8858 160.539 95.9804 160.16 95.9804Z"
    fill="#382757" />
  <path
    d="M169.141 109.34C168.021 109.34 167.053 109.121 166.238 108.685C165.437 108.234 164.812 107.601 164.361 106.786C163.924 105.971 163.706 104.996 163.706 103.861C163.706 102.755 163.924 101.794 164.361 100.979C164.797 100.15 165.394 99.5021 166.151 99.0364C166.922 98.5708 167.81 98.3379 168.814 98.3379C169.527 98.3379 170.167 98.4616 170.735 98.709C171.302 98.9418 171.782 99.2838 172.175 99.7349C172.583 100.186 172.888 100.732 173.092 101.372C173.31 102.012 173.419 102.733 173.419 103.533C173.419 103.766 173.354 103.941 173.223 104.057C173.092 104.159 172.903 104.21 172.655 104.21H165.059V103.053H172.241L171.891 103.337C171.891 102.551 171.775 101.889 171.542 101.35C171.309 100.797 170.967 100.375 170.516 100.084C170.08 99.7932 169.527 99.6476 168.857 99.6476C168.115 99.6476 167.482 99.8223 166.958 100.172C166.449 100.506 166.063 100.979 165.801 101.59C165.539 102.187 165.408 102.886 165.408 103.686V103.817C165.408 105.156 165.729 106.174 166.369 106.873C167.024 107.571 167.948 107.921 169.141 107.921C169.636 107.921 170.123 107.855 170.604 107.724C171.098 107.593 171.579 107.375 172.044 107.069C172.248 106.938 172.43 106.88 172.59 106.895C172.765 106.895 172.903 106.946 173.005 107.048C173.107 107.135 173.172 107.251 173.201 107.397C173.245 107.528 173.23 107.673 173.158 107.833C173.099 107.993 172.976 108.132 172.786 108.248C172.306 108.597 171.739 108.867 171.084 109.056C170.429 109.245 169.781 109.34 169.141 109.34ZM168.115 97.0064L165.91 93.6011C165.794 93.4265 165.75 93.2591 165.779 93.0991C165.809 92.939 165.881 92.8007 165.998 92.6843C166.114 92.5679 166.252 92.4951 166.412 92.466C166.573 92.4224 166.733 92.4296 166.893 92.4879C167.053 92.5461 167.184 92.677 167.286 92.8808L169.119 96.4388C169.207 96.6135 169.221 96.7663 169.163 96.8972C169.119 97.0282 169.025 97.1301 168.879 97.2028C168.748 97.261 168.61 97.2829 168.464 97.2683C168.333 97.2392 168.217 97.1519 168.115 97.0064Z"
    fill="#382757" />
  <path
    d="M176.873 109.296C176.582 109.296 176.357 109.216 176.197 109.056C176.051 108.896 175.978 108.67 175.978 108.379V99.2765C175.978 98.9855 176.051 98.7672 176.197 98.6217C176.342 98.4616 176.553 98.3816 176.83 98.3816C177.106 98.3816 177.317 98.4616 177.463 98.6217C177.623 98.7672 177.703 98.9855 177.703 99.2765V101.045H177.485C177.717 100.186 178.161 99.5239 178.816 99.0583C179.471 98.5926 180.279 98.3452 181.239 98.3161C181.457 98.3015 181.632 98.3525 181.763 98.4689C181.894 98.5708 181.967 98.7527 181.981 99.0146C181.996 99.262 181.938 99.4584 181.807 99.604C181.676 99.7495 181.472 99.8368 181.195 99.8659L180.846 99.9096C179.857 99.9969 179.093 100.317 178.554 100.87C178.03 101.408 177.768 102.151 177.768 103.097V108.379C177.768 108.67 177.688 108.896 177.528 109.056C177.383 109.216 177.164 109.296 176.873 109.296Z"
    fill="#382757" />
  <path
    d="M188.454 109.34C187.334 109.34 186.366 109.121 185.551 108.685C184.751 108.234 184.125 107.601 183.674 106.786C183.237 105.971 183.019 104.996 183.019 103.861C183.019 102.755 183.237 101.794 183.674 100.979C184.11 100.15 184.707 99.5021 185.464 99.0364C186.235 98.5708 187.123 98.3379 188.127 98.3379C188.84 98.3379 189.48 98.4616 190.048 98.709C190.615 98.9418 191.096 99.2838 191.488 99.7349C191.896 100.186 192.201 100.732 192.405 101.372C192.624 102.012 192.733 102.733 192.733 103.533C192.733 103.766 192.667 103.941 192.536 104.057C192.405 104.159 192.216 104.21 191.969 104.21H184.372V103.053H191.554L191.205 103.337C191.205 102.551 191.088 101.889 190.855 101.35C190.623 100.797 190.281 100.375 189.829 100.084C189.393 99.7932 188.84 99.6476 188.17 99.6476C187.428 99.6476 186.795 99.8223 186.271 100.172C185.762 100.506 185.376 100.979 185.114 101.59C184.853 102.187 184.722 102.886 184.722 103.686V103.817C184.722 105.156 185.042 106.174 185.682 106.873C186.337 107.571 187.261 107.921 188.454 107.921C188.949 107.921 189.437 107.855 189.917 107.724C190.412 107.593 190.892 107.375 191.357 107.069C191.561 106.938 191.743 106.88 191.903 106.895C192.078 106.895 192.216 106.946 192.318 107.048C192.42 107.135 192.485 107.251 192.514 107.397C192.558 107.528 192.543 107.673 192.471 107.833C192.413 107.993 192.289 108.132 192.1 108.248C191.619 108.597 191.052 108.867 190.397 109.056C189.742 109.245 189.095 109.34 188.454 109.34Z"
    fill="#382757" />
  <path
    d="M202.054 109.296C201.763 109.296 201.538 109.216 201.378 109.056C201.232 108.881 201.159 108.648 201.159 108.357V94.6707C201.159 94.3651 201.239 94.1395 201.399 93.994C201.56 93.8339 201.785 93.7539 202.076 93.7539H207.25C208.894 93.7539 210.16 94.1395 211.048 94.9108C211.935 95.6821 212.379 96.7808 212.379 98.2069C212.379 99.1092 212.176 99.895 211.768 100.564C211.375 101.219 210.793 101.721 210.022 102.071C209.25 102.405 208.326 102.573 207.25 102.573L207.468 102.289H207.904C208.472 102.289 208.967 102.434 209.389 102.725C209.811 103.017 210.196 103.482 210.546 104.122L212.641 108.03C212.758 108.234 212.809 108.437 212.794 108.641C212.794 108.83 212.729 108.99 212.598 109.121C212.467 109.238 212.277 109.296 212.03 109.296C211.783 109.296 211.579 109.238 211.419 109.121C211.259 109.005 211.12 108.837 211.004 108.619L208.625 104.21C208.29 103.584 207.904 103.169 207.468 102.966C207.031 102.747 206.456 102.638 205.743 102.638H202.949V108.357C202.949 108.648 202.877 108.881 202.731 109.056C202.585 109.216 202.36 109.296 202.054 109.296ZM202.949 101.219H206.988C208.181 101.219 209.083 100.972 209.694 100.477C210.306 99.9678 210.611 99.2111 210.611 98.2069C210.611 97.2319 210.306 96.497 209.694 96.0023C209.083 95.4929 208.181 95.2383 206.988 95.2383H202.949V101.219Z"
    fill="#382757" />
  <path
    d="M220.067 109.34C218.947 109.34 217.979 109.121 217.164 108.685C216.364 108.234 215.738 107.601 215.287 106.786C214.85 105.971 214.632 104.996 214.632 103.861C214.632 102.755 214.85 101.794 215.287 100.979C215.723 100.15 216.32 99.5021 217.077 99.0364C217.848 98.5708 218.736 98.3379 219.74 98.3379C220.453 98.3379 221.093 98.4616 221.661 98.709C222.228 98.9418 222.709 99.2838 223.102 99.7349C223.509 100.186 223.815 100.732 224.018 101.372C224.237 102.012 224.346 102.733 224.346 103.533C224.346 103.766 224.28 103.941 224.149 104.057C224.018 104.159 223.829 104.21 223.582 104.21H215.985V103.053H223.167L222.818 103.337C222.818 102.551 222.701 101.889 222.468 101.35C222.236 100.797 221.894 100.375 221.443 100.084C221.006 99.7932 220.453 99.6476 219.784 99.6476C219.041 99.6476 218.408 99.8223 217.884 100.172C217.375 100.506 216.99 100.979 216.728 101.59C216.466 102.187 216.335 102.886 216.335 103.686V103.817C216.335 105.156 216.655 106.174 217.295 106.873C217.95 107.571 218.874 107.921 220.067 107.921C220.562 107.921 221.05 107.855 221.53 107.724C222.025 107.593 222.505 107.375 222.971 107.069C223.174 106.938 223.356 106.88 223.516 106.895C223.691 106.895 223.829 106.946 223.931 107.048C224.033 107.135 224.098 107.251 224.127 107.397C224.171 107.528 224.157 107.673 224.084 107.833C224.026 107.993 223.902 108.132 223.713 108.248C223.232 108.597 222.665 108.867 222.01 109.056C221.355 109.245 220.708 109.34 220.067 109.34Z"
    fill="#382757" />
  <path
    d="M230.485 109.34C229.83 109.34 229.168 109.259 228.498 109.099C227.843 108.939 227.232 108.663 226.665 108.27C226.519 108.168 226.417 108.052 226.359 107.921C226.301 107.775 226.279 107.637 226.293 107.506C226.323 107.36 226.381 107.237 226.468 107.135C226.57 107.033 226.686 106.975 226.817 106.96C226.963 106.931 227.123 106.96 227.298 107.048C227.865 107.397 228.411 107.644 228.935 107.79C229.473 107.921 230.004 107.986 230.528 107.986C231.358 107.986 231.983 107.833 232.405 107.528C232.827 107.222 233.038 106.807 233.038 106.284C233.038 105.876 232.9 105.556 232.624 105.323C232.347 105.076 231.911 104.886 231.314 104.756L229.328 104.319C228.411 104.13 227.727 103.802 227.276 103.337C226.839 102.871 226.621 102.267 226.621 101.525C226.621 100.87 226.788 100.31 227.123 99.8441C227.472 99.3639 227.96 98.9928 228.585 98.7308C229.211 98.4689 229.939 98.3379 230.768 98.3379C231.409 98.3379 232.013 98.4252 232.58 98.5999C233.162 98.7599 233.686 99.0219 234.152 99.3857C234.297 99.4876 234.392 99.6113 234.436 99.7568C234.494 99.8877 234.501 100.026 234.457 100.172C234.428 100.302 234.363 100.419 234.261 100.521C234.159 100.608 234.035 100.659 233.89 100.674C233.744 100.688 233.591 100.644 233.431 100.543C232.995 100.252 232.551 100.041 232.1 99.9096C231.649 99.7641 231.205 99.6913 230.768 99.6913C229.953 99.6913 229.335 99.8514 228.913 100.172C228.491 100.492 228.28 100.914 228.28 101.438C228.28 101.845 228.411 102.18 228.673 102.442C228.935 102.704 229.342 102.893 229.895 103.009L231.882 103.424C232.827 103.628 233.533 103.955 233.999 104.406C234.479 104.843 234.719 105.439 234.719 106.196C234.719 107.157 234.334 107.921 233.562 108.488C232.791 109.056 231.765 109.34 230.485 109.34Z"
    fill="#382757" />
  <path
    d="M238.287 113.225C237.996 113.225 237.778 113.145 237.632 112.985C237.487 112.839 237.414 112.621 237.414 112.33V99.2765C237.414 98.9855 237.487 98.7672 237.632 98.6217C237.778 98.4616 237.989 98.3816 238.265 98.3816C238.556 98.3816 238.775 98.4616 238.92 98.6217C239.08 98.7672 239.16 98.9855 239.16 99.2765V101.35L238.92 101.045C239.153 100.215 239.611 99.5603 240.295 99.0801C240.994 98.5853 241.823 98.3379 242.784 98.3379C243.73 98.3379 244.552 98.5635 245.25 99.0146C245.963 99.4512 246.509 100.084 246.888 100.914C247.28 101.729 247.477 102.704 247.477 103.839C247.477 104.959 247.28 105.934 246.888 106.764C246.509 107.579 245.971 108.212 245.272 108.663C244.574 109.114 243.744 109.34 242.784 109.34C241.823 109.34 241.001 109.099 240.317 108.619C239.633 108.124 239.167 107.47 238.92 106.655H239.182V112.33C239.182 112.621 239.102 112.839 238.942 112.985C238.782 113.145 238.564 113.225 238.287 113.225ZM242.413 107.921C243.082 107.921 243.657 107.761 244.137 107.44C244.632 107.12 245.01 106.655 245.272 106.043C245.549 105.432 245.687 104.697 245.687 103.839C245.687 102.514 245.389 101.503 244.792 100.805C244.21 100.106 243.417 99.7568 242.413 99.7568C241.758 99.7568 241.183 99.9169 240.688 100.237C240.193 100.543 239.808 101.001 239.531 101.612C239.269 102.209 239.138 102.951 239.138 103.839C239.138 105.148 239.437 106.16 240.033 106.873C240.63 107.571 241.423 107.921 242.413 107.921Z"
    fill="#382757" />
  <path
    d="M254.55 109.34C253.516 109.34 252.621 109.114 251.865 108.663C251.108 108.212 250.519 107.579 250.096 106.764C249.689 105.934 249.485 104.959 249.485 103.839C249.485 102.995 249.602 102.238 249.835 101.569C250.067 100.885 250.409 100.302 250.861 99.8223C251.312 99.342 251.843 98.9782 252.454 98.7308C253.08 98.4689 253.778 98.3379 254.55 98.3379C255.583 98.3379 256.478 98.5635 257.234 99.0146C257.991 99.4657 258.573 100.106 258.981 100.936C259.403 101.75 259.614 102.718 259.614 103.839C259.614 104.683 259.497 105.439 259.265 106.109C259.032 106.778 258.69 107.36 258.239 107.855C257.787 108.335 257.249 108.707 256.623 108.968C256.012 109.216 255.321 109.34 254.55 109.34ZM254.55 107.921C255.204 107.921 255.779 107.761 256.274 107.44C256.769 107.12 257.147 106.655 257.409 106.043C257.686 105.432 257.824 104.697 257.824 103.839C257.824 102.514 257.525 101.503 256.929 100.805C256.347 100.106 255.554 99.7568 254.55 99.7568C253.88 99.7568 253.298 99.9169 252.803 100.237C252.323 100.543 251.945 101.001 251.668 101.612C251.406 102.209 251.275 102.951 251.275 103.839C251.275 105.148 251.574 106.16 252.17 106.873C252.767 107.571 253.56 107.921 254.55 107.921Z"
    fill="#382757" />
  <path
    d="M263.143 109.296C262.852 109.296 262.633 109.216 262.488 109.056C262.342 108.896 262.27 108.67 262.27 108.379V99.2765C262.27 98.9855 262.342 98.7672 262.488 98.6217C262.633 98.4616 262.844 98.3816 263.121 98.3816C263.397 98.3816 263.608 98.4616 263.754 98.6217C263.914 98.7672 263.994 98.9855 263.994 99.2765V101.154L263.754 100.892C264.059 100.048 264.554 99.4148 265.238 98.9928C265.937 98.5562 266.737 98.3379 267.639 98.3379C268.483 98.3379 269.182 98.4907 269.735 98.7963C270.302 99.1019 270.724 99.5676 271.001 100.193C271.277 100.805 271.416 101.583 271.416 102.529V108.379C271.416 108.67 271.336 108.896 271.176 109.056C271.03 109.216 270.819 109.296 270.543 109.296C270.252 109.296 270.026 109.216 269.866 109.056C269.72 108.896 269.648 108.67 269.648 108.379V102.638C269.648 101.649 269.451 100.928 269.058 100.477C268.68 100.011 268.069 99.7786 267.225 99.7786C266.25 99.7786 265.471 100.084 264.889 100.695C264.321 101.292 264.038 102.092 264.038 103.097V108.379C264.038 108.99 263.739 109.296 263.143 109.296Z"
    fill="#382757" />
  <path
    d="M278.256 109.34C277.601 109.34 276.939 109.259 276.27 109.099C275.615 108.939 275.003 108.663 274.436 108.27C274.29 108.168 274.189 108.052 274.13 107.921C274.072 107.775 274.05 107.637 274.065 107.506C274.094 107.36 274.152 107.237 274.239 107.135C274.341 107.033 274.458 106.975 274.589 106.96C274.734 106.931 274.894 106.96 275.069 107.048C275.636 107.397 276.182 107.644 276.706 107.79C277.245 107.921 277.776 107.986 278.3 107.986C279.129 107.986 279.755 107.833 280.177 107.528C280.599 107.222 280.81 106.807 280.81 106.284C280.81 105.876 280.672 105.556 280.395 105.323C280.119 105.076 279.682 104.886 279.085 104.756L277.099 104.319C276.182 104.13 275.498 103.802 275.047 103.337C274.611 102.871 274.392 102.267 274.392 101.525C274.392 100.87 274.56 100.31 274.894 99.8441C275.244 99.3639 275.731 98.9928 276.357 98.7308C276.983 98.4689 277.71 98.3379 278.54 98.3379C279.18 98.3379 279.784 98.4252 280.351 98.5999C280.934 98.7599 281.457 99.0219 281.923 99.3857C282.069 99.4876 282.163 99.6113 282.207 99.7568C282.265 99.8877 282.272 100.026 282.229 100.172C282.2 100.302 282.134 100.419 282.032 100.521C281.93 100.608 281.807 100.659 281.661 100.674C281.516 100.688 281.363 100.644 281.203 100.543C280.766 100.252 280.322 100.041 279.871 99.9096C279.42 99.7641 278.976 99.6913 278.54 99.6913C277.725 99.6913 277.106 99.8514 276.684 100.172C276.262 100.492 276.051 100.914 276.051 101.438C276.051 101.845 276.182 102.18 276.444 102.442C276.706 102.704 277.114 102.893 277.667 103.009L279.653 103.424C280.599 103.628 281.305 103.955 281.77 104.406C282.251 104.843 282.491 105.439 282.491 106.196C282.491 107.157 282.105 107.921 281.334 108.488C280.562 109.056 279.537 109.34 278.256 109.34Z"
    fill="#382757" />
  <path
    d="M288.525 109.34C287.797 109.34 287.143 109.201 286.56 108.925C285.993 108.634 285.542 108.241 285.207 107.746C284.872 107.251 284.705 106.698 284.705 106.087C284.705 105.301 284.901 104.683 285.294 104.232C285.702 103.781 286.364 103.46 287.281 103.271C288.212 103.082 289.478 102.987 291.079 102.987H292.061V104.144H291.101C289.922 104.144 288.991 104.203 288.307 104.319C287.637 104.421 287.164 104.603 286.888 104.865C286.626 105.127 286.495 105.498 286.495 105.978C286.495 106.575 286.699 107.062 287.106 107.44C287.528 107.819 288.096 108.008 288.809 108.008C289.391 108.008 289.9 107.87 290.337 107.593C290.788 107.317 291.137 106.938 291.385 106.458C291.647 105.978 291.778 105.425 291.778 104.799V102.311C291.778 101.408 291.596 100.761 291.232 100.368C290.868 99.9605 290.271 99.7568 289.442 99.7568C288.933 99.7568 288.423 99.8223 287.914 99.9532C287.405 100.084 286.866 100.295 286.299 100.586C286.095 100.688 285.92 100.725 285.775 100.695C285.629 100.652 285.513 100.572 285.425 100.455C285.338 100.339 285.287 100.208 285.273 100.062C285.258 99.9023 285.287 99.7495 285.36 99.604C285.447 99.4584 285.578 99.342 285.753 99.2547C286.393 98.9346 287.026 98.7017 287.652 98.5562C288.278 98.4107 288.874 98.3379 289.442 98.3379C290.359 98.3379 291.115 98.4907 291.712 98.7963C292.309 99.0874 292.753 99.5385 293.044 100.15C293.335 100.746 293.48 101.518 293.48 102.464V108.379C293.48 108.67 293.407 108.896 293.262 109.056C293.131 109.216 292.934 109.296 292.672 109.296C292.396 109.296 292.185 109.216 292.039 109.056C291.894 108.896 291.821 108.67 291.821 108.379V106.676H292.018C291.901 107.229 291.676 107.702 291.341 108.095C291.021 108.488 290.621 108.794 290.14 109.012C289.66 109.23 289.122 109.34 288.525 109.34Z"
    fill="#382757" />
  <path
    d="M302.13 109.34C301.17 109.34 300.34 109.092 299.642 108.597C298.958 108.103 298.499 107.44 298.267 106.611L298.507 106.371V108.379C298.507 108.67 298.427 108.896 298.267 109.056C298.121 109.216 297.91 109.296 297.634 109.296C297.342 109.296 297.124 109.216 296.979 109.056C296.833 108.896 296.76 108.67 296.76 108.379V94.4961C296.76 94.205 296.833 93.9867 296.979 93.8412C297.124 93.6811 297.342 93.6011 297.634 93.6011C297.91 93.6011 298.128 93.6811 298.288 93.8412C298.448 93.9867 298.529 94.205 298.529 94.4961V101.001H298.267C298.514 100.186 298.98 99.5385 299.664 99.0583C300.348 98.578 301.17 98.3379 302.13 98.3379C303.091 98.3379 303.92 98.5635 304.619 99.0146C305.317 99.4512 305.856 100.084 306.234 100.914C306.627 101.729 306.823 102.704 306.823 103.839C306.823 104.959 306.627 105.934 306.234 106.764C305.856 107.579 305.31 108.212 304.597 108.663C303.898 109.114 303.076 109.34 302.13 109.34ZM301.759 107.921C302.429 107.921 303.003 107.761 303.484 107.44C303.978 107.12 304.357 106.655 304.619 106.043C304.895 105.432 305.033 104.697 305.033 103.839C305.033 102.514 304.735 101.503 304.138 100.805C303.556 100.106 302.763 99.7568 301.759 99.7568C301.104 99.7568 300.529 99.9169 300.035 100.237C299.54 100.543 299.154 101.001 298.878 101.612C298.616 102.209 298.485 102.951 298.485 103.839C298.485 105.148 298.783 106.16 299.38 106.873C299.976 107.571 300.77 107.921 301.759 107.921Z"
    fill="#382757" />
  <path
    d="M312.717 109.34C311.669 109.34 310.869 109.019 310.316 108.379C309.763 107.739 309.487 106.822 309.487 105.629V94.4961C309.487 94.205 309.559 93.9867 309.705 93.8412C309.85 93.6811 310.069 93.6011 310.36 93.6011C310.636 93.6011 310.855 93.6811 311.015 93.8412C311.175 93.9867 311.255 94.205 311.255 94.4961V105.498C311.255 106.284 311.408 106.873 311.713 107.266C312.033 107.644 312.499 107.833 313.11 107.833C313.241 107.833 313.358 107.826 313.459 107.812C313.561 107.797 313.663 107.79 313.765 107.79C313.925 107.775 314.034 107.812 314.092 107.899C314.165 107.986 314.202 108.161 314.202 108.423C314.202 108.685 314.143 108.881 314.027 109.012C313.911 109.143 313.721 109.23 313.459 109.274C313.343 109.289 313.219 109.303 313.088 109.318C312.957 109.332 312.834 109.34 312.717 109.34Z"
    fill="#382757" />
  <path
    d="M320.62 109.34C319.499 109.34 318.531 109.121 317.716 108.685C316.916 108.234 316.29 107.601 315.839 106.786C315.403 105.971 315.184 104.996 315.184 103.861C315.184 102.755 315.403 101.794 315.839 100.979C316.276 100.15 316.872 99.5021 317.629 99.0364C318.4 98.5708 319.288 98.3379 320.292 98.3379C321.005 98.3379 321.646 98.4616 322.213 98.709C322.781 98.9418 323.261 99.2838 323.654 99.7349C324.061 100.186 324.367 100.732 324.571 101.372C324.789 102.012 324.898 102.733 324.898 103.533C324.898 103.766 324.832 103.941 324.702 104.057C324.571 104.159 324.381 104.21 324.134 104.21H316.538V103.053H323.719L323.37 103.337C323.37 102.551 323.254 101.889 323.021 101.35C322.788 100.797 322.446 100.375 321.995 100.084C321.558 99.7932 321.005 99.6476 320.336 99.6476C319.594 99.6476 318.961 99.8223 318.437 100.172C317.927 100.506 317.542 100.979 317.28 101.59C317.018 102.187 316.887 102.886 316.887 103.686V103.817C316.887 105.156 317.207 106.174 317.847 106.873C318.502 107.571 319.426 107.921 320.62 107.921C321.114 107.921 321.602 107.855 322.082 107.724C322.577 107.593 323.057 107.375 323.523 107.069C323.727 106.938 323.908 106.88 324.068 106.895C324.243 106.895 324.381 106.946 324.483 107.048C324.585 107.135 324.651 107.251 324.68 107.397C324.723 107.528 324.709 107.673 324.636 107.833C324.578 107.993 324.454 108.132 324.265 108.248C323.785 108.597 323.217 108.867 322.562 109.056C321.907 109.245 321.26 109.34 320.62 109.34Z"
    fill="#382757" />
  <defs>
    <linearGradient id="paint0_linear_26_509" x1="77.5388" y1="65.2228" x2="67.7071" y2="53.5058"
      gradientUnits="userSpaceOnUse">
      <stop stop-color="#CE5DCB" />
      <stop offset="0.2095" stop-color="#C558CC" />
      <stop offset="0.5525" stop-color="#AC4ACF" />
      <stop offset="0.9845" stop-color="#8534D4" />
      <stop offset="1" stop-color="#8333D4" />
    </linearGradient>
    <linearGradient id="paint1_linear_26_509" x1="77.8954" y1="51.8858" x2="99.0215" y2="51.8858"
      gradientUnits="userSpaceOnUse">
      <stop offset="0.0237" stop-color="#FF5667" />
      <stop offset="0.6592" stop-color="#FC8B82" />
      <stop offset="1" stop-color="#FBA28E" />
    </linearGradient>
    <linearGradient id="paint2_linear_26_509" x1="54.2405" y1="44.2935" x2="83.3161" y2="44.2935"
      gradientUnits="userSpaceOnUse">
      <stop stop-color="#00B874" />
      <stop offset="0.5126" stop-color="#29D3A2" />
      <stop offset="0.6817" stop-color="#53DFB6" />
      <stop offset="1" stop-color="#9FF4D9" />
    </linearGradient>
    <linearGradient id="paint3_linear_26_509" x1="74.0532" y1="64.106" x2="103.128" y2="64.106"
      gradientUnits="userSpaceOnUse">
      <stop stop-color="#FCD77E" />
      <stop offset="0.5241" stop-color="#FEA500" />
      <stop offset="1" stop-color="#FF5B00" />
    </linearGradient>
  </defs>
</svg>