<svg width="40" height="42" viewBox="0 0 40 42" fill="none" xmlns="http://www.w3.org/2000/svg">
  <g id="Group 404">
    <path id="Ellipse 37"
      d="M19.8897 1.19311C30.45 1.19311 39.0484 10.0247 39.0484 20.9662C39.0484 31.9077 30.45 40.7393 19.8897 40.7393C9.32943 40.7393 0.730969 31.9077 0.730968 20.9662C0.730968 10.0247 9.32943 1.19311 19.8897 1.19311Z"
      fill="white" stroke="#382757" stroke-width="1.46203" />
    <g id="Ellipse 33">
      <mask id="path-2-inside-1_101_505" fill="white">
        <path
          d="M19.8897 0.462096C22.5017 0.462096 25.088 0.99245 27.5012 2.02288C29.9143 3.05331 32.1069 4.56363 33.9539 6.46761C35.8008 8.37159 37.2659 10.6319 38.2654 13.1196C39.265 15.6073 39.7794 18.2736 39.7794 20.9662L19.8897 20.9662L19.8897 0.462096Z" />
      </mask>
      <path
        d="M19.8897 0.462096C22.5017 0.462096 25.088 0.99245 27.5012 2.02288C29.9143 3.05331 32.1069 4.56363 33.9539 6.46761C35.8008 8.37159 37.2659 10.6319 38.2654 13.1196C39.265 15.6073 39.7794 18.2736 39.7794 20.9662L19.8897 20.9662L19.8897 0.462096Z"
        fill="#382757" stroke="#382757" stroke-width="2.92406" mask="url(#path-2-inside-1_101_505)" />
    </g>
  </g>
</svg>