<svg width="61" height="70" viewBox="0 0 61 70" fill="none" xmlns="http://www.w3.org/2000/svg">
<path id="deployed_code_history" d="M25.6842 0.916667C26.7009 0.305556 27.7711 0 28.8947 0C30.0184 0 31.0886 0.305556 32.1053 0.916667L54.5789 14.3333C55.5956 14.9444 56.3849 15.75 56.9467 16.75C57.5086 17.75 57.7895 18.8611 57.7895 20.0833V34.1667C55.9702 32.8333 53.977 31.8056 51.8099 31.0833C49.6428 30.3611 47.3553 30 44.9474 30C44.0377 30 43.1682 30.0417 42.3388 30.125C41.5094 30.2083 40.6667 30.3611 39.8105 30.5833L51.3684 23.6667V20.1667L47.9171 18.0833L28.8947 29.5L9.87237 18.0833L6.42105 20.1667V23.6667L25.6842 35.25V41.3333C24.6675 43.1111 23.8783 45 23.3164 47C22.7546 49 22.4737 51.1111 22.4737 53.3333C22.4737 55.6667 22.7814 57.8889 23.3967 60C24.0121 62.1111 24.8816 64.0833 26.0053 65.9167C25.9518 65.8611 25.8982 65.8333 25.8447 65.8333C25.7912 65.8333 25.7377 65.8056 25.6842 65.75L3.21053 52.3333C2.19386 51.7222 1.40461 50.9167 0.842763 49.9167C0.280921 48.9167 0 47.8056 0 46.5833V20.0833C0 18.8611 0.280921 17.75 0.842763 16.75C1.40461 15.75 2.19386 14.9444 3.21053 14.3333L25.6842 0.916667ZM44.9474 70C40.5061 70 36.7204 68.375 33.5901 65.125C30.4599 61.875 28.8947 57.9444 28.8947 53.3333C28.8947 48.7222 30.4599 44.7917 33.5901 41.5417C36.7204 38.2917 40.5061 36.6667 44.9474 36.6667C49.3886 36.6667 53.1743 38.2917 56.3046 41.5417C59.4349 44.7917 61 48.7222 61 53.3333C61 57.9444 59.4349 61.875 56.3046 65.125C53.1743 68.375 49.3886 70 44.9474 70ZM46.5526 52.6667V43.3333H43.3421V54L50.2447 61.1667L52.4921 58.8333L46.5526 52.6667Z" fill="#382757"/>
</svg>
