<svg width="41" height="42" viewBox="0 0 41 42" fill="none" xmlns="http://www.w3.org/2000/svg">
<g id="Group 402">
<path id="Ellipse 39" d="M20.5621 1.19311C31.1224 1.19311 39.7208 10.0247 39.7208 20.9662C39.7208 31.9077 31.1224 40.7393 20.5621 40.7393C10.0018 40.7393 1.40338 31.9077 1.40338 20.9662C1.40338 10.0247 10.0018 1.19311 20.5621 1.19311Z" fill="white" stroke="#382757" stroke-width="1.46203"/>
<g id="Ellipse 35">
<mask id="path-2-inside-1_101_495" fill="white">
<path d="M0.671404 20.9662C0.671403 25.0215 1.83791 28.9858 4.02343 32.3577C6.20894 35.7295 9.3153 38.3576 12.9497 39.9095C16.584 41.4614 20.5832 41.8675 24.4414 41.0763C28.2997 40.2852 31.8437 38.3323 34.6253 35.4648C37.407 32.5972 39.3013 28.9438 40.0687 24.9663C40.8362 20.9889 40.4423 16.8663 38.9369 13.1196C37.4315 9.37298 34.8822 6.17068 31.6113 3.91766C28.3405 1.66464 24.495 0.462096 20.5612 0.462095L20.5612 20.9662L0.671404 20.9662Z"/>
</mask>
<path d="M0.671404 20.9662C0.671403 25.0215 1.83791 28.9858 4.02343 32.3577C6.20894 35.7295 9.3153 38.3576 12.9497 39.9095C16.584 41.4614 20.5832 41.8675 24.4414 41.0763C28.2997 40.2852 31.8437 38.3323 34.6253 35.4648C37.407 32.5972 39.3013 28.9438 40.0687 24.9663C40.8362 20.9889 40.4423 16.8663 38.9369 13.1196C37.4315 9.37298 34.8822 6.17068 31.6113 3.91766C28.3405 1.66464 24.495 0.462096 20.5612 0.462095L20.5612 20.9662L0.671404 20.9662Z" fill="#382757" stroke="#382757" stroke-width="2.92406" mask="url(#path-2-inside-1_101_495)"/>
</g>
</g>
</svg>
