<svg width="41" height="42" viewBox="0 0 41 42" fill="none" xmlns="http://www.w3.org/2000/svg">
<g id="Group 403">
<path id="Ellipse 38" d="M20.2255 1.19311C30.7857 1.19311 39.3842 10.0247 39.3842 20.9662C39.3842 31.9077 30.7858 40.7393 20.2255 40.7393C9.66521 40.7393 1.06675 31.9077 1.06675 20.9662C1.06675 10.0247 9.6652 1.19311 20.2255 1.19311Z" fill="white" stroke="#382757" stroke-width="1.46203"/>
<g id="Ellipse 34">
<mask id="path-2-inside-1_101_500" fill="white">
<path d="M20.2257 41.4704C22.8376 41.4704 25.424 40.9401 27.8372 39.9096C30.2503 38.8792 32.4429 37.3689 34.2899 35.4649C36.1368 33.5609 37.6019 31.3006 38.6014 28.8129C39.601 26.3252 40.1154 23.659 40.1154 20.9663C40.1154 18.2737 39.601 15.6074 38.6014 13.1197C37.6019 10.6321 36.1368 8.37171 34.2899 6.46773C32.4429 4.56375 30.2503 3.05343 27.8372 2.023C25.424 0.992572 22.8376 0.462218 20.2257 0.462218L20.2257 20.9663L20.2257 41.4704Z"/>
</mask>
<path d="M20.2257 41.4704C22.8376 41.4704 25.424 40.9401 27.8372 39.9096C30.2503 38.8792 32.4429 37.3689 34.2899 35.4649C36.1368 33.5609 37.6019 31.3006 38.6014 28.8129C39.601 26.3252 40.1154 23.659 40.1154 20.9663C40.1154 18.2737 39.601 15.6074 38.6014 13.1197C37.6019 10.6321 36.1368 8.37171 34.2899 6.46773C32.4429 4.56375 30.2503 3.05343 27.8372 2.023C25.424 0.992572 22.8376 0.462218 20.2257 0.462218L20.2257 20.9663L20.2257 41.4704Z" fill="#382757" stroke="#382757" stroke-width="2.92406" mask="url(#path-2-inside-1_101_500)"/>
</g>
</g>
</svg>
