<svg width="95" height="59" viewBox="0 0 95 59" fill="none" xmlns="http://www.w3.org/2000/svg">
<g id="Group 1583">
<rect id="Rectangle 769" width="95" height="59" rx="5" fill="#382757"/>
<g id="Group">
<path id="Vector" d="M48.6098 22.514C51.8717 19.2667 52.224 14.0658 49.4305 10.4195L49.1093 10L34.7005 24.3505C31.4407 27.5998 31.0884 32.7987 33.8819 36.447L34.2031 36.8665L48.2285 22.8965L48.6098 22.514Z" fill="#EEEEEE"/>
<path id="Vector_2" d="M48.2762 36.9857C48.844 36.342 48.6285 34.2444 48.0317 30.6002L48.0255 30.5611C47.8058 29.2141 47.5986 27.9411 47.5032 26.81L47.4203 25.8229L35.2724 37.9235L35.6952 38.2402C37.2888 39.433 39.1932 40.0726 41.2034 40.0911C43.7295 40.1137 46.1003 39.1512 47.8804 37.3806L48.2762 36.9857Z" fill="#EEEEEE"/>
<path id="Vector_3" d="M63.6797 24.5068L63.3585 24.0872L48.9497 38.4397C47.1965 40.1878 46.2329 42.5055 46.237 44.9713C46.2412 47.0052 46.894 48.928 48.127 50.5342L48.4482 50.9517L62.857 36.5991C66.1188 33.3539 66.4732 28.153 63.6797 24.5068Z" fill="#EEEEEE"/>
<path id="Vector_4" d="M49.2813 23.9721C48.7155 24.6137 48.9311 26.7114 49.5258 30.3555L49.53 30.3884C49.7496 31.7375 49.9569 33.0126 50.0543 34.1457L50.1371 35.1308L62.283 23.0322L61.8602 22.7155C60.2687 21.5207 58.3642 20.879 56.3541 20.8605H56.2463C55.4796 20.8626 54.717 20.9551 53.9792 21.1402C52.3566 21.5454 50.8687 22.3865 49.6729 23.5752L49.2813 23.9721Z" fill="#EEEEEE"/>
</g>
</g>
</svg>
