<svg width="46" height="12" viewBox="0 0 46 12" fill="none" xmlns="http://www.w3.org/2000/svg">
<g id="Group 2003">
<path id="Vector" d="M11.9751 3.97766H16.589V4.84097H14.7748V9.69408H13.7772V4.84097H11.971V3.97766H11.9751ZM16.3919 5.55502H17.2447V6.35379H17.2608C17.289 6.24083 17.3412 6.13191 17.4177 6.02702C17.4941 5.92213 17.5866 5.82128 17.6952 5.73656C17.8038 5.64781 17.9245 5.57923 18.0573 5.52275C18.19 5.4703 18.3268 5.44207 18.4636 5.44207C18.5681 5.44207 18.6446 5.4461 18.6848 5.45013C18.725 5.45417 18.7653 5.46224 18.8095 5.46627V6.34572C18.7451 6.33362 18.6808 6.32555 18.6124 6.31748C18.544 6.30941 18.4796 6.30538 18.4153 6.30538C18.2624 6.30538 18.1176 6.33765 17.9808 6.39816C17.8441 6.45868 17.7274 6.55146 17.6269 6.66845C17.5263 6.78948 17.4458 6.93471 17.3855 7.11221C17.3252 7.28972 17.297 7.49142 17.297 7.72137V9.69005H16.3879V5.55502H16.3919ZM22.989 9.69408H22.096V9.1172H22.0799C21.9673 9.32697 21.8023 9.49237 21.5811 9.61743C21.3599 9.74249 21.1346 9.80704 20.9053 9.80704C20.3622 9.80704 19.968 9.67391 19.7267 9.40362C19.4853 9.13333 19.3646 8.72588 19.3646 8.18127V5.55502H20.2737V8.09252C20.2737 8.45559 20.3421 8.71378 20.4829 8.86304C20.6197 9.01231 20.8168 9.08896 21.0662 9.08896C21.2593 9.08896 21.4162 9.06072 21.5449 9.0002C21.6736 8.93969 21.7782 8.86304 21.8546 8.76219C21.9351 8.66537 21.9914 8.54434 22.0276 8.40718C22.0638 8.27002 22.0799 8.12075 22.0799 7.95939V5.55906H22.989V9.69408ZM24.5377 8.36684C24.5659 8.63309 24.6665 8.81867 24.8394 8.92759C25.0164 9.03248 25.2256 9.08896 25.471 9.08896C25.5555 9.08896 25.652 9.08089 25.7606 9.06879C25.8692 9.05668 25.9738 9.02844 26.0663 8.99214C26.1629 8.95583 26.2393 8.89935 26.3037 8.82673C26.364 8.75412 26.3922 8.66133 26.3881 8.54434C26.3841 8.42735 26.3399 8.33053 26.2594 8.25792C26.179 8.18127 26.0784 8.12479 25.9537 8.07638C25.829 8.032 25.6882 7.99166 25.5273 7.95939C25.3664 7.92711 25.2055 7.89081 25.0406 7.8545C24.8716 7.81819 24.7067 7.76978 24.5498 7.71734C24.3929 7.66489 24.2521 7.59228 24.1274 7.49949C24.0027 7.41074 23.9022 7.29375 23.8297 7.15255C23.7533 7.01136 23.7171 6.83789 23.7171 6.62811C23.7171 6.4022 23.7734 6.21663 23.882 6.06333C23.9907 5.91003 24.1314 5.789 24.2964 5.69622C24.4653 5.60343 24.6504 5.53889 24.8555 5.49854C25.0607 5.46224 25.2578 5.44207 25.4428 5.44207C25.656 5.44207 25.8612 5.46627 26.0543 5.51065C26.2473 5.55502 26.4243 5.62764 26.5812 5.73253C26.7381 5.83338 26.8668 5.96651 26.9714 6.12787C27.076 6.28924 27.1404 6.48692 27.1685 6.71686H26.2192C26.1749 6.49902 26.0784 6.34975 25.9215 6.27714C25.7646 6.20049 25.5836 6.16418 25.3825 6.16418C25.3181 6.16418 25.2417 6.16822 25.1532 6.18032C25.0647 6.19242 24.9842 6.21259 24.9038 6.24083C24.8274 6.26907 24.763 6.31345 24.7067 6.36992C24.6544 6.4264 24.6262 6.49902 24.6262 6.5918C24.6262 6.70476 24.6665 6.79351 24.7429 6.86209C24.8193 6.93067 24.9199 6.98715 25.0446 7.03556C25.1693 7.07994 25.3101 7.12028 25.471 7.15255C25.6319 7.18483 25.7968 7.22113 25.9658 7.25744C26.1307 7.29375 26.2916 7.34216 26.4525 7.3946C26.6134 7.44705 26.7542 7.51966 26.8789 7.61245C27.0036 7.70524 27.1042 7.81819 27.1806 7.95535C27.257 8.09252 27.2972 8.26598 27.2972 8.46769C27.2972 8.71378 27.2409 8.91952 27.1283 9.09299C27.0157 9.26242 26.8709 9.40362 26.6939 9.50851C26.5169 9.6134 26.3157 9.69408 26.0985 9.74249C25.8813 9.7909 25.6641 9.81511 25.4509 9.81511C25.1894 9.81511 24.948 9.78687 24.7268 9.72635C24.5055 9.66584 24.3125 9.57709 24.1516 9.4601C23.9907 9.33907 23.8619 9.18981 23.7694 9.01231C23.6769 8.8348 23.6286 8.62099 23.6206 8.37491H24.5377V8.36684ZM27.5386 5.55502H28.2265V4.3125H29.1356V5.55502H29.9562V6.2368H29.1356V8.44752C29.1356 8.54434 29.1396 8.62503 29.1477 8.69764C29.1557 8.76622 29.1758 8.82673 29.204 8.87514C29.2321 8.92355 29.2764 8.95986 29.3367 8.98407C29.3971 9.00827 29.4735 9.02038 29.5781 9.02038C29.6424 9.02038 29.7068 9.02037 29.7712 9.01634C29.8355 9.01231 29.8999 9.00424 29.9643 8.9881V9.69408C29.8637 9.70618 29.7631 9.71425 29.6706 9.72635C29.5741 9.73846 29.4775 9.74249 29.3769 9.74249C29.1356 9.74249 28.9425 9.71829 28.7977 9.67391C28.6529 9.62954 28.5362 9.56095 28.4558 9.4722C28.3713 9.38345 28.319 9.27453 28.2868 9.1414C28.2587 9.00827 28.2385 8.85497 28.2345 8.68554V6.24487H27.5467V5.55502H27.5386ZM30.5998 5.55502H31.4607V6.11577H31.4768C31.6055 5.87372 31.7825 5.70429 32.0118 5.5994C32.2411 5.49451 32.4864 5.44207 32.756 5.44207C33.0818 5.44207 33.3634 5.49854 33.6047 5.61553C33.8461 5.72849 34.0472 5.88582 34.2081 6.08753C34.369 6.28924 34.4857 6.52322 34.5661 6.78948C34.6466 7.05573 34.6868 7.34216 34.6868 7.64472C34.6868 7.92308 34.6506 8.19337 34.5782 8.45156C34.5058 8.71378 34.3972 8.94373 34.2524 9.14543C34.1076 9.34714 33.9225 9.50448 33.6973 9.6255C33.472 9.74653 33.2105 9.80704 32.9048 9.80704C32.772 9.80704 32.6393 9.79494 32.5066 9.77073C32.3738 9.74653 32.2451 9.70618 32.1244 9.65374C32.0037 9.6013 31.8871 9.53271 31.7865 9.448C31.6819 9.36328 31.5974 9.26646 31.525 9.15754H31.5089V11.223H30.5998V5.55502ZM33.7777 7.62859C33.7777 7.44301 33.7536 7.26148 33.7053 7.08397C33.657 6.90647 33.5846 6.75317 33.4881 6.61601C33.3915 6.47885 33.2709 6.36992 33.1301 6.28924C32.9852 6.20856 32.8203 6.16418 32.6353 6.16418C32.2531 6.16418 31.9635 6.29731 31.7704 6.56356C31.5773 6.82982 31.4808 7.18483 31.4808 7.62859C31.4808 7.83836 31.5049 8.032 31.5572 8.20951C31.6095 8.38701 31.6819 8.54031 31.7865 8.6694C31.8871 8.7985 32.0077 8.89935 32.1485 8.97196C32.2893 9.04861 32.4543 9.08492 32.6393 9.08492C32.8485 9.08492 33.0215 9.04055 33.1663 8.95583C33.3111 8.87111 33.4277 8.75815 33.5203 8.62503C33.6128 8.48786 33.6812 8.33457 33.7214 8.1611C33.7576 7.98763 33.7777 7.81012 33.7777 7.62859ZM35.3827 3.97766H36.2918V4.84097H35.3827V3.97766ZM35.3827 5.55502H36.2918V9.69408H35.3827V5.55502ZM37.1044 3.97766H38.0135V9.69408H37.1044V3.97766ZM40.8012 9.80704C40.4714 9.80704 40.1777 9.75056 39.9203 9.64164C39.6628 9.53271 39.4456 9.37942 39.2646 9.18981C39.0876 8.99617 38.9508 8.76622 38.8583 8.49997C38.7658 8.23371 38.7175 7.93922 38.7175 7.62052C38.7175 7.30585 38.7658 7.01539 38.8583 6.74914C38.9508 6.48288 39.0876 6.25293 39.2646 6.05929C39.4416 5.86565 39.6628 5.71639 39.9203 5.60747C40.1777 5.49854 40.4714 5.44207 40.8012 5.44207C41.1311 5.44207 41.4247 5.49854 41.6822 5.60747C41.9396 5.71639 42.1568 5.86969 42.3379 6.05929C42.5149 6.25293 42.6516 6.48288 42.7441 6.74914C42.8367 7.01539 42.8849 7.30585 42.8849 7.62052C42.8849 7.93922 42.8367 8.23371 42.7441 8.49997C42.6516 8.76622 42.5149 8.99617 42.3379 9.18981C42.1609 9.38345 41.9396 9.53271 41.6822 9.64164C41.4247 9.75056 41.1311 9.80704 40.8012 9.80704ZM40.8012 9.08492C41.0023 9.08492 41.1793 9.04055 41.3282 8.95583C41.477 8.87111 41.5977 8.75815 41.6942 8.62099C41.7908 8.48383 41.8592 8.3265 41.9074 8.15303C41.9517 7.97956 41.9758 7.80205 41.9758 7.62052C41.9758 7.44301 41.9517 7.26954 41.9074 7.09204C41.8632 6.91454 41.7908 6.76124 41.6942 6.62408C41.5977 6.48692 41.477 6.37799 41.3282 6.29328C41.1793 6.20856 41.0023 6.16418 40.8012 6.16418C40.6001 6.16418 40.4231 6.20856 40.2742 6.29328C40.1254 6.37799 40.0047 6.49095 39.9082 6.62408C39.8116 6.76124 39.7433 6.91454 39.695 7.09204C39.6507 7.26954 39.6266 7.44301 39.6266 7.62052C39.6266 7.80205 39.6507 7.97956 39.695 8.15303C39.7392 8.3265 39.8116 8.48383 39.9082 8.62099C40.0047 8.75815 40.1254 8.87111 40.2742 8.95583C40.4231 9.04458 40.6001 9.08492 40.8012 9.08492ZM43.1504 5.55502H43.8383V4.3125H44.7474V5.55502H45.568V6.2368H44.7474V8.44752C44.7474 8.54434 44.7514 8.62503 44.7595 8.69764C44.7675 8.76622 44.7876 8.82673 44.8158 8.87514C44.844 8.92355 44.8882 8.95986 44.9485 8.98407C45.0089 9.00827 45.0853 9.02038 45.1899 9.02038C45.2543 9.02038 45.3186 9.02037 45.383 9.01634C45.4473 9.01231 45.5117 9.00424 45.5761 8.9881V9.69408C45.4755 9.70618 45.3749 9.71425 45.2824 9.72635C45.1859 9.73846 45.0893 9.74249 44.9888 9.74249C44.7474 9.74249 44.5543 9.71829 44.4095 9.67391C44.2647 9.62954 44.148 9.56095 44.0676 9.4722C43.9831 9.38345 43.9308 9.27453 43.8986 9.1414C43.8705 9.00827 43.8504 8.85497 43.8463 8.68554V6.24487H43.1585V5.55502H43.1504Z" fill="black"/>
<path id="Vector_2" d="M10.9132 3.97769H6.74572L5.45848 0L4.16721 3.97769L-0.000228882 3.97366L3.37476 6.4345L2.08349 10.4082L5.45848 7.95135L8.82944 10.4082L7.5422 6.4345L10.9132 3.97769Z" fill="#00B67A"/>
<path id="Vector_3" d="M7.83012 7.33407L7.54049 6.43445L5.45677 7.9513L7.83012 7.33407Z" fill="#005128"/>
</g>
</svg>
