<svg width="68" height="68" viewBox="0 0 68 68" fill="none" xmlns="http://www.w3.org/2000/svg">
<path id="shopping_cart" d="M20.4189 68C18.5471 68 16.9448 67.3342 15.6119 66.0025C14.279 64.6708 13.6126 63.07 13.6126 61.2C13.6126 59.33 14.279 57.7292 15.6119 56.3975C16.9448 55.0658 18.5471 54.4 20.4189 54.4C22.2906 54.4 23.8929 55.0658 25.2258 56.3975C26.5587 57.7292 27.2252 59.33 27.2252 61.2C27.2252 63.07 26.5587 64.6708 25.2258 66.0025C23.8929 67.3342 22.2906 68 20.4189 68ZM54.4503 68C52.5786 68 50.9763 67.3342 49.6434 66.0025C48.3105 64.6708 47.644 63.07 47.644 61.2C47.644 59.33 48.3105 57.7292 49.6434 56.3975C50.9763 55.0658 52.5786 54.4 54.4503 54.4C56.322 54.4 57.9244 55.0658 59.2572 56.3975C60.5901 57.7292 61.2566 59.33 61.2566 61.2C61.2566 63.07 60.5901 64.6708 59.2572 66.0025C57.9244 67.3342 56.322 68 54.4503 68ZM14.2932 6.8H64.4896C65.7941 6.8 66.7867 7.38083 67.4673 8.5425C68.148 9.70417 68.1763 10.88 67.5524 12.07L55.4713 33.83C54.8473 34.9633 54.0107 35.8417 52.9614 36.465C51.9121 37.0883 50.7636 37.4 49.5157 37.4H24.1623L20.4189 44.2H61.2566V51H20.4189C17.8665 51 15.9381 49.8808 14.6335 47.6425C13.329 45.4042 13.2723 43.18 14.4634 40.97L19.0576 32.64L6.80629 6.8H0V0H11.0602L14.2932 6.8Z" fill="#382757"/>
</svg>
